<svg xmlns="http://www.w3.org/2000/svg" width="248" height="142" viewBox="0 0 248 142">
 <g transform="matrix(2.12 0 0 2.12 1.18 -1.11)">
  <path d="m84.9 8.2 1.62 1.68c-4.64 3.26-7.74 3.83-9.28 3.85-2.17-2.9-5.66-4.63-9.37-4.63h-0.128c-0.722 0-1.4-0.184-1.99-0.553-0.669-0.429-1.33-0.858-2-1.29-5.45-3.54-10.2-6.59-14.3-6.24-4.28 0.346-6.81 2.32-9.05 4.07-0.226 0.177-0.451 0.357-0.684 0.542-1.1 0.88-2.24 1.79-3.55 2.45-2.44 1.23-5.14 2.67-6.82 4.52-2.49-0.737-6.47-1.37-12.2-0.73-5.73 0.636-8.9-1.42-9.98-6.47-0.109-0.519-0.519-0.91-1.05-0.997-0.519-0.0828-1.03 0.154-1.3 0.606-1.17 1.95-1.82 3.83-1.96 5.61-0.271-0.079-0.572-0.196-0.887-0.361-0.346-0.181-0.763-0.214-1.12-0.0602-0.541 0.233-0.846 0.779-0.775 1.34 0.444 3.6 2.03 6.34 4.6 7.92 2.75 1.69 6.44 1.84 10.4 0.41 3.82-1.38 7.01-1.12 9.29-0.478-0.88 1.4-1.86 3.13-2.97 5.26-1.85 3.54-6.15 6.95-8.59 8.38-1.19 0.7-2.08 1.8-2.5 3.1-1.43 4.41-4.24 11.3-7.45 16.1-0.782 1.19-1.04 2.6-0.726 3.98 0.399 1.74 0.745 3.3 1.03 4.62 0.207 0.963 0.782 1.8 1.62 2.35l2.06 1.37c0.865 0.572 1.95 0.771 2.97 0.549 1.02-0.226 1.87-0.831 2.41-1.71l1.73-2.86c0.658-1.09 0.692-2.44 0.094-3.56l-0.978-1.83c-0.0414-0.079-0.0489-0.177-0.0151-0.26l4.74-12.2c0.226-0.523 0.602-0.982 1.09-1.33 1.47-1.06 3.99-2.58 7.59-3.82 1.33-0.455 2.28-0.745 3.2-1.03 0.542-0.166 1.06-0.32 1.62-0.504 2.09 1.98 4.21 5.15 5.49 8.29 0.511 1.25 1.4 2.27 2.55 2.96 0.541 0.32 1.32 0.816 2.23 1.39 0.628 0.399 1.3 0.831 2 1.26-2.36 2.2-4.83 3.57-4.88 3.6-1.69 0.989-2.48 2.97-1.91 4.81 0.515 1.68 0.782 4.12 0.835 4.63 0.113 0.831 0.579 1.58 1.29 2.05l2.2 1.46c0.391 0.26 0.82 0.47 1.27 0.579 1.6 0.384 3.2-0.256 4.07-1.54l1.81-2.65c0.65-0.956 0.65-2.19-0.0037-3.16-0.38-0.564-0.824-1.34-1.21-2.02 0.902-0.839 2.29-2.11 3.71-3.4 1.16 0.711 2.27 1.4 3.37 2.09 1.35 0.846 3 1.07 4.54 0.609l5.54-1.65c0.838-0.252 1.48-0.895 1.72-1.73 0.233-0.82 0.0301-1.69-0.541-2.32l-1.96-2.19c-0.662-0.741-1.62-1.17-2.63-1.18l-1.31-0.0151 1.99-1.48c0.775-0.579 1.27-1.47 1.35-2.45 0.0113-0.113 0.0715-0.222 0.166-0.297 0.756-0.594 2-1.71 3.46-3.01 0.996-0.895 2.11-1.89 3.18-2.82 3.87 1.69 7.59 2.99 9.52 3.63 1.11 0.365 2.16 0.862 3.12 1.47 3.09 1.95 8.78 5.56 11.7 7.46 1.71 1.1 3.83 1.41 5.83 0.831l5.52-1.7c0.846-0.26 1.48-0.918 1.7-1.76 0.219-0.831 0-1.7-0.594-2.33l-1.7-1.36c-0.771-0.805-1.81-1.31-2.93-1.41-0.643-0.0639-1.74-0.128-3.32-0.0752-0.353 0.0113-0.692-0.0677-0.985-0.237-2.01-1.16-5.78-3.42-8.97-5.72-0.233-0.91-0.748-1.74-1.49-2.37l-1.83-1.49c-0.891-0.752-2.04-1.14-3.22-1.11-0.199 0-0.414-0.0602-0.62-0.192-0.158-0.102-0.331-0.211-0.515-0.327 1.89-1.37 3.74-2.92 5.62-4.7 3.29-3.11 5.83-5.3 7.76-6.67 2.24 0.335 5.5 0.32 9.13-1.29l2.08 0.899c1.77 0.768 3.87 0.621 5.48-0.384l0.613-0.384h0.963c0.94 0 1.86-0.335 2.53-1 0.842-0.843 1.19-2.03 0.936-3.18-0.248-1.14-0.267-1.22-0.278-1.26-0.113-0.433-0.166-0.85-0.155-1.25 0.166-5.42-7.82-6.05-11-6.21-2.87-2.38-7.45-3.98-11.5-1.16 0 0-3.88-0.779-8.05 2.85-0.248 0.214-0.271 0.594-0.0413 0.831zm-38.7 32.8c-0.323-0.786-1.21-3.21-1.56-6.55 3.35 1.26 6.66 2.13 9.85 2.58-0.169 0.53-0.357 1.03-0.643 1.58-1.39 0.688-3.33 2.12-4.96 4.24-1.2-0.771-2.09-1.39-2.68-1.84z" fill="#fff"/>
  <path d="m50.2 2.09c-0.244-0.0054-0.486 1.64e-5 -0.725 0.0195-3.95 0.32-6.24 2.11-8.46 3.85-0.222 0.173-0.446 0.353-0.676 0.533-1.15 0.914-2.34 1.86-3.74 2.57-2.61 1.31-5.49 2.87-6.94 4.81-2.09-0.718-6.16-1.61-12.4-0.906-6.31 0.703-9.97-1.7-11.2-7.34-0.015-0.0752-0.0752-0.131-0.15-0.143-0.0752-0.0113-0.146 0.022-0.188 0.0859-1.35 2.25-1.95 4.38-1.8 6.33-0.402-0.0037-1.4-0.0855-2.52-0.684-0.0602-0.0301-0.135-0.028-0.191 0.0098-0.0564 0.0376-0.0856 0.106-0.0781 0.174 0.402 3.26 1.81 5.72 4.08 7.11 2.46 1.51 5.82 1.63 9.45 0.312 4.91-1.77 8.86-1.01 11.4-0.0293-1.05 1.52-2.27 3.62-3.7 6.36-1.96 3.75-6.46 7.33-9.01 8.82-0.959 0.56-1.67 1.45-2.01 2.49-1.45 4.47-4.31 11.5-7.58 16.4-0.617 0.933-0.82 2.04-0.572 3.13 0.399 1.75 0.745 3.31 1.03 4.63 0.147 0.685 0.556 1.27 1.15 1.67l2.06 1.37c0.617 0.41 1.39 0.552 2.12 0.391 0.726-0.162 1.33-0.59 1.71-1.21l1.73-2.86c0.455-0.752 0.482-1.69 0.0644-2.47l-0.979-1.83c-0.196-0.365-0.221-0.794-0.0703-1.18l4.74-12.3c0.305-0.715 0.812-1.34 1.46-1.81 1.53-1.1 4.15-2.68 7.88-3.96 1.35-0.463 2.31-0.757 3.24-1.04 0.722-0.218 1.41-0.428 2.2-0.695 2.36 2.03 4.8 5.58 6.25 9.12 0.421 1.02 1.14 1.87 2.1 2.43 0.553 0.327 1.34 0.829 2.25 1.41 0.985 0.628 2.09 1.33 3.18 1.99-2.74 2.9-6.05 4.73-6.09 4.75-1.25 0.734-1.84 2.19-1.42 3.54 0.545 1.78 0.822 4.3 0.875 4.81 0.0677 0.515 0.365 0.982 0.809 1.28l2.27 1.51c0.47 0.312 1 0.463 1.53 0.463 0.869 0 1.72-0.41 2.24-1.17l1.81-2.65c0.395-0.579 0.389-1.34-0.0059-1.92-0.448-0.662-0.963-1.58-1.37-2.31-0.18-0.323-0.116-0.715 0.158-0.971 1-0.933 2.69-2.48 4.5-4.12 1.42 0.869 2.76 1.7 4.09 2.53 1.08 0.677 2.41 0.853 3.64 0.488l5.54-1.65c0.478-0.143 0.843-0.508 0.975-0.975 0.128-0.455 0.015-0.938-0.301-1.29l-1.96-2.19c-0.459-0.512-1.12-0.809-1.82-0.816l-3.21-0.0371c-0.515-0.0075-1.02-0.143-1.46-0.398-0.124-0.0715-0.264-0.154-0.422-0.248 0.29-0.214 0.643-0.336 1.02-0.336 0.523 0 1.04-0.168 1.46-0.48l2.65-1.98c0.526-0.391 0.858-0.987 0.914-1.66 0.0338-0.418 0.249-0.805 0.584-1.07 0.729-0.572 1.97-1.68 3.41-2.97 1.17-1.05 2.49-2.23 3.72-3.29 4.05 1.81 8.03 3.2 10.1 3.88 1.19 0.395 2.32 0.93 3.37 1.59 3.11 1.96 8.81 5.58 11.7 7.46 1.44 0.922 3.23 1.19 4.91 0.707l5.52-1.7c0.481-0.147 0.843-0.52 0.967-0.994 0.121-0.459-1e-3 -0.943-0.332-1.3l-1.64-1.3c-0.594-0.643-1.41-1.04-2.3-1.13-0.61-0.0602-1.65-0.121-3.17-0.0684-0.56 0.0226-1.11-0.112-1.58-0.383-2.11-1.22-6.12-3.62-9.41-6.03-0.117-0.824-0.543-1.6-1.2-2.16l-1.84-1.5c-0.684-0.576-1.56-0.88-2.48-0.854-0.421 0.0113-0.849-0.113-1.24-0.365-0.504-0.32-1.18-0.746-1.92-1.2 2.6-1.76 4.89-3.68 6.86-5.56 3.64-3.45 6.31-5.7 8.25-7.03 2.11 0.38 5.53 0.496 9.38-1.34l2.53 1.1c1.44 0.624 3.15 0.508 4.46-0.309l0.879-0.551h1.38c1.49 0 2.61-1.38 2.29-2.84-0.146-0.677-0.256-1.17-0.268-1.21-0.142-0.534-0.204-1.06-0.189-1.56v-0.0039c0.094-3.08-3.28-4.75-10.3-5.1-0.793-0.7-5.88-4.87-10.8-1.08 0 0-3.33-0.849-6.95 2.01-0.116 0.094-0.129 0.27-0.0234 0.379l1.89 1.96c-5.54 4.16-9.27 4.81-11.1 4.81-0.282 0-0.541-0.123-0.695-0.334-1.96-2.69-5.16-4.3-8.56-4.3h-0.121c-0.929 0.0111-1.83-0.239-2.59-0.725-0.673-0.429-1.34-0.862-1.99-1.29-4.96-3.22-9.28-6.02-12.9-6.1zm5.83 2.55 0.988 0.619v0.00391c0.32 0.199 0.527 0.538 0.557 0.914 0.207 2.62 0.229 9.19-3.88 14.4-0.477 0.602-1.24 0.899-2 0.812-2.46-0.282-6.39-0.827-11.9-1.76-0.278-0.0452-0.43-0.365-0.279-0.605 1.32-2.12 3.26-6.41 2.74-12.4-0.0376-0.433 0.154-0.854 0.5-1.12 0.594-0.455 0.996-0.729 0.996-0.729s-0.238 0.412-0.178 1.08l0.137 1.3c0.0452 0.425 0.33 0.79 0.74 0.922 2.15 0.7 6.41 1.77 10.6 1.02 0.658-0.12 1.2-0.613 1.36-1.26 0.0377-0.162 0.0649-0.319 0.0762-0.48 0.094-1.35-0.0904-2.35-0.455-2.69zm41.4 4.1h1.05c0.0301 0.357 0.259 0.665 0.598 0.846-0.116 0.0301-0.235 0.0469-0.363 0.0469h-0.0039c-0.635 0-1.17-0.385-1.28-0.893zm-48.5 1.08c-0.502-0.0301-1 0.0588-1.44 0.268-0.459 0.218-2.71 1.21-2.71 1.21s-0.134 3.34-1.83 6.77c0 0 1.82 1.36 2.13 1.61 0.38 0.308 0.91 0.467 1.51 0.467 0.436 0 0.911-0.0826 1.38-0.252 0 0 2.51-1.02 2.98-1.21h-0.0039c0.617-1.3 1.02-2.56 1.02-2.56l-2.91-0.18c-0.184 0.534-0.48 1.31-0.48 1.31-0.44 0.169-0.889 0.335-1.34 0.504-0.102 0.0376-0.176 0.0232-0.188 0.0156-0.237-0.184-0.478-0.37-0.723-0.555 0.609-1.52 1.02-3.07 1.22-4.61 0.368-0.166 0.729-0.33 1.09-0.492 0.0602-0.0263 0.145-0.0241 0.197 0.0098 0.32 0.199 0.639 0.404 0.955 0.604 0 0-0.129 0.933-0.234 1.38l2.9 0.18c0.207-0.925 0.338-2.49 0.338-2.49 0 0-1.94-1.25-2.43-1.54-0.44-0.261-0.943-0.409-1.45-0.439zm57.8 3.46v0.0039c1.03 0 1.92 0.497 2.4 0.828h-0.381l-0.24 0.135c-0.425 0.244-1.04 0.373-1.78 0.373-0.621 0-1.11-0.23-1.29-0.482h1.99l-1.88-0.5c0.229-0.199 0.655-0.357 1.17-0.357zm-69 6.98c0.27-0.0078 0.528 0.093 0.719 0.287 0.218 0.222 0.315 0.532 0.266 0.848-0.0451 0.286-0.225 0.541-0.484 0.684-0.196 0.113-0.407 0.151-0.625 0.117-0.0489-0.0076-0.0922 0.0234-0.104 0.0723-0.515 2.19-2.26 2.53-3.04 2.58 0.526-0.357 0.805-0.97 0.82-1 0.015-0.0339 0.0107-0.0753-0.0156-0.102-0.0188-0.0188-0.046-0.0312-0.0723-0.0312-0.0113 0-0.0293 0.0039-0.0293 0.0039l-0.74 0.244c-0.252 0.0827-0.524 0.0452-0.742-0.0977l0.844-1.01c0.0263-0.0301 0.0265-0.0795 0.0039-0.113-0.0263-0.0377-0.068-0.0521-0.109-0.0371l-1 0.342c-0.5 0.169-1.05 0.08-1.47-0.229 0.282-0.263 1.4-1.17 3.28-0.963 0.624 0.0677 1.15 0.038 1.58-0.0938 0.0225-0.0113 0.0453-0.0301 0.0566-0.0527 0.0112-0.0263 0.0112-0.0537 0-0.0801-0.102-0.233-0.112-0.47-0.0293-0.703 0.12-0.342 0.424-0.601 0.773-0.65h0.0078c0.039-0.0056 0.0786-0.0087 0.117-0.0098zm15.8 2.06c0.113-6e-3 0.228 0.0091 0.34 0.043h0.0059c0.301 0.0903 0.535 0.314 0.641 0.615 0.0978 0.271 0.0563 0.584-0.102 0.832-0.124 0.192-0.289 0.323-0.496 0.398-0.0489 0.015-0.0718 0.0644-0.0606 0.113 0.587 2.17-0.808 3.43-1.5 3.91 0.301-0.613 0.301-1.42 0.301-1.46 0-0.0376-0.023-0.0709-0.0606-0.0859-0.0113-0.0076-0.0239-0.0078-0.0352-0.0078-0.0263 0-0.0476 0.0105-0.0664 0.0293l-0.539 0.568c-0.0338 0.0376-0.0744 0.0862-0.127 0.143-0.184 0.207-0.627 0.703-0.891 0.812l0.578-1.97c0.0113-0.0414-0.0073-0.0869-0.0449-0.109-0.0376-0.0188-0.0871-0.0144-0.117 0.0195l-0.582 0.627c-0.395 0.425-0.966 0.659-1.54 0.637 0.128-0.384 0.685-1.69 2.42-2.4 0.579-0.237 1.03-0.516 1.34-0.836 0.0188-0.0188 0.0254-0.0439 0.0254-0.0703-0.0038-0.0263-0.0146-0.0533-0.0371-0.0684-0.196-0.154-0.32-0.357-0.357-0.602-0.0602-0.361 0.0872-0.733 0.373-0.943 0.157-0.118 0.341-0.183 0.529-0.193zm-10.1 10.5c4.29 1.77 8.49 2.88 12.5 3.31-0.0715 0.222-0.135 0.438-0.199 0.648h-0.0039c-0.271 0.888-0.526 1.73-1.09 2.7-1.23 0.534-3.6 2.1-5.47 4.88-1.85-1.17-3.15-2.06-3.87-2.64-0.237-0.534-1.69-3.99-1.87-8.9z" fill="#050000"/>
  <path d="m50.3 4.59c-0.202-0.0101-0.397-0.00724-0.586 0.00781-1.88 0.15-3.32 0.734-4.63 1.53l0.0938 0.557c0.0339 0.207 0.184 0.375 0.387 0.428v0.00391c2.08 0.557 5.88 1.34 9.11 0.75 0.278-0.0527 0.5-0.276 0.549-0.559 0.0602-0.342 0.0758-0.672 0.0644-0.98-1.88-0.994-3.58-1.66-4.99-1.73zm47.7 1.44c-1.32-0.0532-2.72 0.347-4.03 1.62 0 0-1.89-1.16-4.38 0.125 0 0 0.508 0.568 0.963 1.06 0.286 0.305 0.733 0.467 1.19 0.43l1.12-0.0938c-7.25 6.33-12.3 8.16-15.7 8.16h-0.123c-1.07 0-2.06-0.531-2.67-1.38-1.42-1.97-3.79-3.26-6.47-3.26h-0.158c-1.41 0-2.8-0.394-3.98-1.15-1.64-1.05-3.25-2.11-4.8-3.09 0.241 7.24-2.24 11.6-3.73 13.6 0.0113 0.0188 0.0298 0.0339 0.041 0.0527 0.305 0.47 0.406 1.03 0.289 1.58-0.079 0.369-0.252 0.7-0.496 0.971 0.462 2.46-0.873 3.94-1.71 4.4-0.0978 0.0527-0.206 0.0887-0.318 0.111-0.274 0.0489-0.553 0.0684-0.824 0.0684-1.7 0-3.2-0.796-3.28-0.838-0.391-0.211-0.602-0.651-0.523-1.09 0.0376-0.203 0.437-2 2.94-3.13 0.0902-0.0414 0.165-0.088 0.232-0.141-0.0752-0.184-0.12-0.375-0.143-0.57-2.49-0.365-6.06-0.964-8.89-1.45 1.71 5.17 6.75 8.92 12.7 8.92 0.816 0 1.62-0.0716 2.39-0.207 0.402-1.92 1.64-5.21 5.5-6.31 0 0-2.91 2.41-4.11 9.86-0.444 2.74-1.22 4.77-2.61 6.81-0.91 0.203-2.56 0.821-4.13 2.72-2.19 2.66-6.43 9.16-11.5 12.2-0.523 0.308-0.776 0.91-0.604 1.47 0.361 1.18 0.611 2.37 0.758 3.18 0.128 0.692 0.543 1.3 1.15 1.7l0.672 0.438 0.602-1.17 1.04 0.963 0.943-1.42c-0.508-0.831-1.09-1.93-1.56-2.84-0.406-0.79-0.244-1.74 0.406-2.36 2.46-2.35 6.62-6.27 10.3-9.36 0.342-0.29 0.996-0.519 1.45-0.496 0.41 0.0225 0.815-0.095 1.14-0.332l1.89-1.43c0.448-0.327 0.702-0.839 0.68-1.38-0.0188-0.425 0.137-0.839 0.434-1.16 1.72-1.86 7.9-8.68 11.7-14.6 0 0 0.662 3.39 4.73 1.16 2.75-1.64 5.14-3.53 7.18-5.36 4.25-3.83 7.02-5.77 8.79-6.63-0.226-0.433-0.361-0.994-0.191-1.65 0 0 3.98 3.8 10.3 0.309l4.25 1.72c0.744 0.301 1.62 0.255 2.32-0.117l0.729-0.391c0.35-0.188 0.761-0.289 1.18-0.289h0.857c0.628 0 1.13-0.425 1.13-0.951h-4.04l8e-3 0.0098c-0.602 0.346-1.4 0.508-2.3 0.508-1.28 0-2.32-0.673-2.32-1.5 0-0.831 1.04-1.51 2.32-1.51 2.01 0 3.48 1.39 3.48 1.39h2.28c-0.936-2.74-5.66-3.25-5.66-3.25 1.94-0.357 3.63 0.124 4.84 0.707 0.259-0.0301 0.495-0.0752 0.672-0.15 0 0-0.339-2.59-9.01-2.67 0 0-2.46-2.31-5.36-2.43zm-0.623 1.71c0.447-0.0233 0.984 0.0481 1.62 0.283 1.76 0.651 2.61 0.636 2.96 0.564-0.146 0.305-0.522 0.801-1.39 0.666-0.279 0.572-0.985 0.979-1.81 0.979-1.06 0-1.92-0.666-1.94-1.49h-1.33s0.545-0.932 1.89-1zm-56.1 1.24c-1.01 0.756-2.11 1.51-3.44 2.18-3.06 1.54-5.49 3.07-6.88 5.46-1.35-0.745-5.97-2.84-13.6-1.85-9.23 1.2-11.3-4.69-11.3-4.69s-0.673 2.54 1.26 4.42c-0.666 0.113-1.54 0.15-2.36-0.162 0 0 2.09 4.3 7.28 2.77 5.7-1.68 11.9-2.21 17.4 0.926-1.61 1.35-2.79 4.09-5.51 8.51-2.53 4.1-7.63 8.06-9.4 9.26-0.65 0.44-1.14 1.06-1.41 1.79-3.13 8.47-6.44 14.5-7.54 16.4-0.282 0.478-0.33 1.05-0.139 1.56 0.474 1.28 0.748 2.35 0.898 3.08 0.139 0.662 0.55 1.25 1.13 1.62l0.658 0.43 0.672-1.32 1.08 1 0.861-1.29c-0.917-1.5-1.52-2.67-1.84-3.3-0.165-0.335-0.181-0.714-0.0527-1.06 2.32-6.16 4.41-11.1 5.52-13.7 0.572-1.32 1.51-2.46 2.73-3.28 2.74-1.84 6.14-3.58 10.3-4.89 11.1-3.54 13.9-8.59 14.6-10.9l-0.0059-0.0039c-0.884-0.154-1.69-0.294-2.34-0.41-0.0602 0.372-0.213 0.726-0.465 1.02-0.244 0.29-0.561 0.501-0.91 0.621-0.823 2.37-3.05 3.03-4.22 3.03h-0.0156c-0.305 0-0.593-0.14-0.785-0.377-0.628-0.771-1.74-1.58-2.11-1.83-0.241-0.158-0.408-0.413-0.449-0.699-0.0451-0.286 0.0384-0.581 0.223-0.803 0.0601-0.0715 1.48-1.76 4.26-1.56 0.124 0.0075 0.241 0.0033 0.35-0.0117 0.128-0.955 0.906-1.73 1.91-1.81 0.117-0.0113 0.231-0.0075 0.344 0 2.46-2.79 3.15-6.98 3.28-10.2zm7.75 1.49c-0.398-0.0254-0.793 0.0414-1.13 0.205-0.462 0.218-2.08 0.925-2.37 1.06-0.18 2.06-0.729 4.13-1.64 6.14 0.203 0.15 1.41 1.04 1.74 1.31 0.466 0.38 1.38 0.421 2.28 0.105 0.538-0.192 2.3-0.955 2.73-1.12 0.222-0.481 0.421-0.972 0.602-1.46l-1.58-0.0977c-0.12 0.339-0.443 1.14-0.443 1.14s-1.11 0.421-1.6 0.605c-0.293 0.109-0.606 0.0799-0.809-0.0781-0.301-0.233-1.11-0.852-1.11-0.852 1.22-2.78 1.41-5.26 1.41-5.26l0.0039 0.0059c0-1e-6 1.01-0.451 1.42-0.639 0.26-0.117 0.57-0.0978 0.807 0.0527 0.383 0.237 1.3 0.824 1.3 0.824s-0.102 0.801-0.154 1.1l1.6 0.0977c0.0865-0.493 0.15-0.986 0.191-1.47-0.252-0.162-0.5-0.319-0.744-0.48-0.429-0.278-0.87-0.566-1.34-0.848-0.35-0.209-0.749-0.326-1.15-0.352zm-14.3 6.25c0.627-0.0209 1.34 0.0481 2.15 0.232 0 0-3.13 0.571-6.76 4.45 0 0 0.219-4.54 4.61-4.68zm34 2.12c7.37 0.512 4.08 6.13 4.08 6.13-0.135-4.98-4.08-6.13-4.08-6.13zm6.87 13.6c0.0714 1.29 0.707 4.19 4.87 5.59 1.74 0.493 3.17 1.37 3.17 1.37 2.67 1.67 9.07 5.69 12.3 7.78 0.981 0.628 2.2 0.806 3.33 0.482l2.93-0.84 0.293-0.842c-0.267-0.233-0.598-0.388-0.959-0.426-0.575-0.0564-1.52-0.109-2.91-0.0606l2e-3 0.0039c-0.917 0.0338-1.82-0.187-2.61-0.643-2.08-1.2-6.35-3.76-9.8-6.3-0.29-0.214-0.488-0.531-0.496-0.881-0.015-0.459-0.225-0.89-0.578-1.19l-1.83-1.5c-0.421-0.357-0.996-0.497-1.54-0.369-0.568 0.136-1.46 0.039-1.98-0.217-1.29-0.639-2.86-1.36-4.2-1.96zm-38.7 1.55s0.316 3.3 3.02 8.91c0.338 0.7 0.876 1.3 1.56 1.71h-0.0039c1.26 0.775 3.42 2.1 5.72 3.51 0.519-0.696 0.977-1.37 1.34-1.93-1.68-1.09-3.38-2.25-4.83-3.34 0 0-1.03-6.91-6.8-8.86zm16.7 15.4-1.79 1.64c1.15 0.715 2.18 1.37 2.98 1.88 0.981 0.628 2.2 0.808 3.33 0.48l2.5-0.719 0.541-1.55c-0.233-0.154-0.495-0.261-0.781-0.287-0.617-0.0602-1.66-0.117-3.21-0.0488v0.0078c-0.714 0.0301-1.42-0.146-2.03-0.5-0.41-0.237-0.932-0.545-1.53-0.902z" fill="#fb471f"/>
 </g>
</svg>