<?xml version="1.0" encoding="UTF-8" standalone="no"?>
<svg width="250px" height="250px" viewBox="0 0 250 250" version="1.1" xmlns="http://www.w3.org/2000/svg" xmlns:xlink="http://www.w3.org/1999/xlink">
    <!-- Generator: Sketch 47.1 (45422) - http://www.bohemiancoding.com/sketch -->
    <title>CHIST</title>
    <desc>Created with Sketch.</desc>
    <defs></defs>
    <g id="Page-1" stroke="none" stroke-width="1" fill="none" fill-rule="evenodd">
        <g id="CHIST" fill-rule="nonzero">
            <g id="Group" transform="translate(125.000000, 125.500000) scale(-1, 1) rotate(-180.000000) translate(-125.000000, -125.500000) translate(0.000000, 4.000000)">
                <path d="M203.53022,218.93339 C203.53022,218.93339 163.002747,221.859 131.877747,242.912136 C131.877747,242.912136 122.093407,235.791 120.835165,224.437271 C120.835165,224.437271 106.31456,229.478492 100.104396,234.408508 C100.104396,234.408508 92.0879121,223.786525 87.4615385,211.474525 C87.4615385,211.474525 37.2005495,206.545881 0.56456044,169.800712 C0.56456044,169.800712 94.9862637,118.058186 59.5769231,0.799016949 C59.5769231,0.799016949 116.186813,87.3605593 142.674451,85.4179322 C142.674451,85.4179322 156.64011,87.5321695 180.086538,60.0155085 L202.232143,99.4968305 C202.232143,99.4968305 196.850275,99.9965593 198.342033,103.892797 C198.342033,103.892797 203.108516,114.901932 198.934066,123.652678 C198.934066,123.652678 189.982143,109.422763 180.391484,113.279186 C180.391484,113.279186 166.119505,115.560915 181.578297,141.469932 C181.578297,141.469932 190.887363,156.012864 203.850275,148.254712 C203.850275,148.254712 218.010989,142.564119 210.612637,130.01461 C210.612637,130.01461 224.505495,133.949288 230.072802,146.338169 L235.304945,149.164932 C235.304945,149.164932 253.144231,175.422661 248.92033,192.354407 C248.92033,192.354407 228.826923,198.518644 203.53022,218.926525" id="Shape" fill="#000000"></path>
                <path d="M133.989011,73.4863851 C133.989011,73.4863851 128.297692,73.486127 127.661758,83.2102292 C127.661758,83.2102292 143.860659,92.9208936 181.877143,89.5833641 C181.877143,89.5833641 148.757363,84.1797031 133.989231,73.4866047 L133.989011,73.4863851 Z M101.961538,82.2255986 C101.961538,82.2255986 79.4703297,113.040744 113.93956,117.396622 C113.93956,117.396622 88.4989011,119.825085 85.210989,101.673287 C85.210989,101.673287 46.2758242,105.783694 14.8208791,135.652649 C14.8208791,135.652649 65.156044,162.92027 74.721978,230.325449 C74.721978,230.325449 92.9648352,211.201761 91.0186813,198.253843 C91.0186813,198.253843 57.3021978,175.967036 97.5069231,148.212866 C97.5069231,148.212866 99.0261538,148.989489 97.5069231,150.930732 C97.5069231,150.930732 75.1310989,172.768332 92.9631868,186.801376 C92.9631868,186.801376 111.843407,200.260007 162.713736,213.419898 C162.713736,213.419898 177.987363,217.91614 179.186264,232.86539 L192.044505,211.847125 C192.044505,211.847125 158.504945,206.726717 162.713736,181.396617 C162.713736,181.396617 166.112088,158.299261 183.421429,149.110841 C183.421429,149.110841 188.017802,146.063264 201.935714,152.223437 C201.935714,152.223437 227.07967,163.728183 238.437912,146.395172 C238.437912,146.395172 245.356484,126.302778 234.651868,123.391172 C234.651868,123.391172 231.313846,123.886353 230.065275,126.623923 C230.065275,126.623923 222.008571,128.184065 225.573077,118.296574 L245.355495,116.516111 C245.355495,116.516111 212.256593,106.544709 200.424725,96.1590264 C200.424725,96.1590264 195.096593,91.9747037 187.31044,95.2023039 C187.31044,95.2023039 140.877473,103.293298 101.960989,82.2269276 L101.961538,82.2255986 Z" id="Shape" fill="#006666" transform="translate(130.088187, 153.175887) scale(-1, 1) rotate(-180.000000) translate(-130.088187, -153.175887) "></path>
                <path d="M190.857143,161.262971 C190.857143,161.262971 178.22967,163.208729 168.505495,161.923668 L186.010989,168.322613 C186.010989,168.322613 191.208681,187.471562 208.381319,177.585279 L218.376593,176.094439 C218.376593,176.094439 199.827143,173.053342 190.856813,161.262927 L190.857143,161.262971 Z M206.448352,190.745873 L105.928571,192.365434 L205.142857,194.943925 L206.447802,190.745873 L206.448352,190.745873 Z M204.83011,196.138771 L127.64989,197.033285 L205.144396,199.502275 L204.831044,196.138716 L204.83011,196.138771 Z M205.143462,201.130457 L144.190714,202.747931 L208.381923,204.678532 L205.143132,201.130457 L205.143462,201.130457 Z" id="Shape" fill="#000000" transform="translate(162.152582, 182.970730) scale(-1, 1) rotate(-180.000000) translate(-162.152582, -182.970730) "></path>
                <path d="M192.054945,102.593007 C192.054945,102.593007 192.053846,116.266906 204.825275,110.364834 C204.825275,110.364834 194.848791,105.430808 192.054945,102.593007 Z M225.26044,155.161184 C222.991209,156.792167 215.518462,155.485096 215.518462,155.485096 C220.187473,158.410761 215.518462,166.178524 215.518462,166.178524 C223.617363,161.571134 225.26044,155.161425 225.26044,155.161425 L225.26044,155.161184 Z M196.710989,183.997184 C194.787912,187.931862 185.636264,195.889631 185.636264,195.889631 L190.853846,197.618583 C197.041978,194.6916 196.711099,183.997403 196.711099,183.997403 L196.710989,183.997184 Z" id="Shape" fill="#FFFFFF" transform="translate(205.448352, 150.105795) scale(-1, 1) rotate(-180.000000) translate(-205.448352, -150.105795) "></path>
            </g>
        </g>
    </g>
</svg>