<?xml version="1.0" encoding="utf-8"?>
<!-- Generator: Adobe Illustrator 28.0.0, SVG Export Plug-In . SVG Version: 6.00 Build 0)  -->
<svg version="1.1" id="Layer_1" xmlns="http://www.w3.org/2000/svg" xmlns:xlink="http://www.w3.org/1999/xlink" x="0px" y="0px"
	 viewBox="0 0 500 500" style="enable-background:new 0 0 500 500;" xml:space="preserve">
<style type="text/css">
	.st0{fill:#72293C;}
	.st1{fill:#29344B;}
	.st2{fill:#FDFDFD;}
	.st3{fill:#FFFFFF;}
</style>
<g>
	<g>
		<path class="st0" d="M268.3,169.4c1.6,0,3.4-0.4,4.9,0.2c1.4,0.5,2.4,2,3.5,3.1c10,9.9,20,19.8,30.1,29.7c1.6,1.6,3.1,3.2,4.8,4.7
			c0.7,0.6,1,1.3,0.9,2.2c0,0.2,0,0.5,0,0.7c0,73.9,0,147.8,0,221.7c0,1.5-0.4,2.5-1.5,3.5c-12.2,12-24.4,24.1-36.6,36.2
			c-0.7,0.7-1.5,1-2.5,1c-33.1,0-66.2,0-99.4,0c-0.5,0-0.9,0-1.5,0c0-101,0-201.9,0-302.9c0.2,0,0.5-0.1,0.7-0.1
			c14.8,0,29.6,0,44.4,0c8.7,0.3,17.6,0.4,26.2,0c6,0,12.1,0,18.1,0C263,169.4,265.7,169.4,268.3,169.4z M224.1,214.3
			c-2,0-4,0-6.2,0c3.5,8.7,5.8,17.5,3.7,26.9c-1,4.4-3.3,8.4-4,12.9c-0.7,4.3-0.6,8.8,0.2,13c1.6,8.1,5.2,14.5,4.5,23.1
			c-0.6,7.8-4.8,14.6-5.1,22.5c-0.3,8.5,3.9,15.4,5,23.6c1,8.3-1.5,14.7-3.7,22.4c-2.3,7.8-1.3,15.9,1.4,23.5
			c2.5,7.1,4,14.8,0.6,21.9c-1.5,3.1-4.4,7.8-3.5,11.5c0.7,3,5.1,6,7.2,8.1c6,6.1,11.8,12.8,18.2,18.5c7.4-6.7,14-14.4,21.1-21.4
			c2.8-2.8,4.7-4.4,3.9-8.5c-0.8-4-3.2-7.1-4.4-10.9c-2.6-8.2,1.1-15.7,3.1-23.5c2.2-8.3,1.2-16.1-1.7-24c-2.8-7.8-3-16.2-0.4-24.1
			c2.6-7.9,4.5-14.9,2.6-23.3c-1.8-8-5.1-14.6-4.2-23.1c0.8-8.1,5.2-15.1,5.1-23.4c-0.1-8.2-4.4-15-5.2-23
			c-0.7-8.1,1.2-15.3,4.4-22.7c-8.1,0-16.2,0-24.4,0.1C236.2,214.3,230.1,214.3,224.1,214.3z"/>
		<path class="st0" d="M350.7,169.5c15.6,0,31,0,46.6,0c0,0.8,0,1.6,0,2.3c0,81.2,0,162.4,0,243.6c0,1.6,0.5,2.7,1.6,3.8
			c7.1,7.2,14.2,14.5,21.3,21.8c0.4,0.4,0.7,0.8,1.1,1.4c0.6-0.6,1.1-0.9,1.5-1.3c7.3-7.5,14.7-15,22-22.6c0.6-0.6,0.9-1.2,0.8-2
			c0-0.5,0-0.9,0-1.4c0-81.1,0-162.2,0-243.2c0-0.7,0-1.5,0-2.3c15.6,0,31,0,46.7,0c0,0.7,0,1.4,0,2.1c0,18.3,0,36.7,0,55
			c0,68.3,0,136.5,0,204.8c0,1.7-0.5,2.9-1.7,4.1c-12.2,11.9-24.3,23.9-36.4,35.9c-0.7,0.7-1.4,1-2.5,1c-20.1,0-40.3,0-60.4,0
			c-1,0-1.7-0.3-2.5-1c-12.4-12.2-24.7-24.5-37.1-36.7c-0.7-0.7-1.1-1.3-1-2.3c0-0.3,0-0.6,0-0.9c0-86.6,0-173.2,0-259.8
			C350.7,171,350.7,170.3,350.7,169.5z"/>
		<path class="st0" d="M54.5,296.4c24.3,0,48.5,0,72.7,0c-0.2,1.4-18.6,38.2-21.7,43.7c-16.9-2.4-33.9-4.7-51.1-7.1
			c0,0.9,0,1.6,0,2.3c0,37.2,0,74.4,0,111.6c0,1.2-0.3,2.2-1.2,3.1c-7.2,7.3-14.3,14.6-21.4,21.9c-0.2,0.2-0.3,0.4-0.5,0.7
			c-0.5-0.5-0.9-0.8-1.3-1.1c-7.1-7.3-14.2-14.6-21.3-21.8c-0.7-0.7-1.1-1.4-0.9-2.3c0-0.2,0-0.5,0-0.7c0-91.6,0-183.3,0-274.9
			c0-0.7,0-1.4,0-2.1c44.7,0,89.3,0,133.9,0c-0.2,1.2-20.5,42-22.3,44.8c-21.5,0-43.1,0-64.8,0C54.5,241.6,54.5,268.9,54.5,296.4z"
			/>
		<path class="st0" d="M216.1,146.6c-11.6,0-23.2,0-35.1,0c5-9.9,9.8-19.5,14.7-29.2c9.7,6,20.4,8.7,31.7,10.5
			c-2.8-16.9-4.1-33.7-2.5-50.8c0.4-4.5,1-8.9,1.8-13.3c0.3-1.8,1-3.8,1.1-5.7c0.1-2.4-0.5-3-1.7-4.9c-3.1-5.1-4-11.2-1.9-16.9
			c5-13.9,23.5-16.8,32.9-5.7c4.1,4.8,5.3,12,3.4,18c-0.9,2.8-3.8,5.4-4.1,8.1c-0.4,3.8,1.6,9,2.2,12.9c1.4,9.7,1.9,19.6,1.6,29.5
			c-0.3,9.8-2.4,19.2-3.2,28.9c11.2-1.8,21.9-4.4,31.7-10.5c4.8,9.6,9.7,19.3,14.7,29.2c-11.9,0-23.5,0-35.1,0c-2.6,0-5.2,0-7.8,0
			c-8,0-13.3,0.3-18.3,7c-4.4-5.6-8.5-6.8-15.5-7C223.2,146.6,219.7,146.6,216.1,146.6z M240.3,80.8c0,4,0,7.7,0,11.6
			c1.7-0.3,3.2-0.5,4.8-0.7c0,3.4,0,6.6,0,9.9c-1.7-0.3-3.2-0.5-4.8-0.7c0,3.9,0,7.7,0,11.6c1.7-0.3,3.2-0.5,4.8-0.7
			c0,3.4,0,6.6,0,9.9c-1.6-0.3-3.1-0.5-4.8-0.8c-0.1,7.5,0.4,14.9,1.7,22.1c3.5-1.8,6.4-3.4,10.3-3.7c4.2-0.4,8.6-0.1,12.8-0.1
			c8.6,0,17.3,0.2,25.9-0.1c-2-3.9-3.9-7.4-5.8-11.1c-11.7,4.7-24,6-36.4,6.9c-0.4-2.7,0.8-6.2,1.3-8.9c0.6-3.4,1.1-6.8,1.6-10.2
			c0.9-6.1,1.7-12.3,1.8-18.5c0.2-11.9,0.3-25.7-3.4-37.1c-3.2,1.5-6.5,1.9-9.8,1.8c0,3.5,0,6.9,0,10.4c1.6-0.2,3.1-0.5,4.7-0.7
			c0,3.3,0,6.5,0,9.9C243.6,81.3,242.1,81,240.3,80.8z M242.6,31.5c1.8,7.6,1.8,15.3-0.6,22.7C256.7,53.9,257.3,30.4,242.6,31.5z"/>
		<path class="st1" d="M216.1,146.6c3.5,0,7.1,0,10.6,0c9.1,5.3,14.8,11.8,15.6,22.8c-8.7,0.5-17.6,0.3-26.2,0
			C216.8,162.2,216.8,153.9,216.1,146.6z"/>
		<path class="st1" d="M260.5,146.6c2.6,0,5.2,0,7.8,0c0,7.2,0,14.4-0.1,21.6c0,0.4,0.1,0.8,0.1,1.2c-2.6,0-5.3,0-7.9,0
			c0-0.7,0.1-1.4,0.1-2.1C260.5,160.4,260.5,153.5,260.5,146.6z"/>
		<path class="st2" d="M242.2,214.3c8.1-0.1,16.2-0.1,24.4-0.1c-3.1,7.4-5.1,14.6-4.4,22.7c0.7,8,5.1,14.9,5.2,23
			c0.1,8.3-4.3,15.3-5.1,23.4c-0.9,8.5,2.4,15.1,4.2,23.1c1.9,8.4,0,15.4-2.6,23.3c-2.6,7.9-2.4,16.3,0.4,24.1
			c2.9,8,3.9,15.7,1.7,24c-2.1,7.8-5.7,15.3-3.1,23.5c1.2,3.8,3.6,6.9,4.4,10.9c0.8,4.1-1.2,5.8-3.9,8.5c-7,7.1-13.7,14.8-21.1,21.4
			c-6.4-5.7-12.2-12.3-18.2-18.5c-2-2.1-6.5-5.1-7.2-8.1c-0.9-3.7,2.1-8.4,3.5-11.5c3.4-7.1,1.9-14.8-0.6-21.9
			c-2.7-7.6-3.7-15.6-1.4-23.5c2.2-7.8,4.7-14.1,3.7-22.4c-1-8.2-5.3-15.1-5-23.6c0.3-7.9,4.5-14.7,5.1-22.5
			c0.7-8.6-2.9-15-4.5-23.1c-0.8-4.3-0.9-8.7-0.2-13c0.7-4.5,3-8.5,4-12.9c2.1-9.4-0.2-18.2-3.7-26.9c2.2,0,4.2,0,6.2,0
			c2.8,8.2,5.3,16.6,4,25.4c-1.4,9.2-6,16.5-4.3,26.2c1.4,7.6,4.9,13.9,4.8,21.9c-0.1,8.2-4.1,15.1-5,23.1c-1,8.1,2.6,14.4,4.1,22
			c1.5,7.7,0.9,15.4-1.8,22.7c-2.8,7.7-3.6,15-0.9,22.9c2.3,6.7,4.8,14.5,2.9,21.6c-0.9,3.4-2.5,6.7-3.9,9.9
			c-1.6,3.8-0.5,4.5,2.4,7.5c5.3,5.4,10.2,11.3,15.9,16.3C242.2,360.6,242.2,287.4,242.2,214.3z"/>
		<path class="st1" d="M242.2,214.3c0,73.2,0,146.3,0,219.5c-5.7-5-10.6-10.9-15.9-16.3c-2.9-3-4-3.7-2.4-7.5c1.4-3.3,3-6.5,3.9-9.9
			c1.9-7.1-0.6-14.9-2.9-21.6c-2.8-7.9-1.9-15.2,0.9-22.9c2.7-7.4,3.3-15,1.8-22.7c-1.5-7.6-5-13.9-4.1-22c0.9-7.9,4.9-14.9,5-23.1
			c0.1-8-3.4-14.3-4.8-21.9c-1.7-9.7,2.9-17,4.3-26.2c1.3-8.8-1.2-17.1-4-25.4C230.1,214.3,236.2,214.3,242.2,214.3z"/>
		<path class="st2" d="M260.5,146.6c0,6.9,0,13.8,0.1,20.7c0,0.7-0.1,1.4-0.1,2.1c-6,0-12.1,0-18.1,0c-0.8-10.9-6.5-17.5-15.6-22.8
			c7,0.2,11.1,1.4,15.5,7C247.2,146.9,252.6,146.6,260.5,146.6z"/>
		<path class="st2" d="M240.3,80.8c1.7,0.3,3.2,0.5,4.8,0.7c0-3.3,0-6.5,0-9.9c-1.6,0.2-3.1,0.5-4.7,0.7c0-3.5,0-6.9,0-10.4
			c3.4,0.1,6.6-0.3,9.8-1.8c3.7,11.4,3.7,25.2,3.4,37.1c-0.1,6.2-0.9,12.4-1.8,18.5c-0.5,3.4-1.1,6.8-1.6,10.2
			c-0.5,2.7-1.7,6.2-1.3,8.9c12.4-0.9,24.6-2.3,36.4-6.9c1.9,3.7,3.8,7.3,5.8,11.1c-8.6,0.2-17.3,0.1-25.9,0.1
			c-4.2,0-8.6-0.3-12.8,0.1c-4,0.4-6.9,1.9-10.3,3.7c-1.3-7.2-1.8-14.5-1.7-22.1c1.6,0.3,3.1,0.5,4.8,0.8c0-3.3,0-6.5,0-9.9
			c-1.5,0.2-3.1,0.5-4.8,0.7c0-3.9,0-7.7,0-11.6c1.5,0.2,3.1,0.5,4.8,0.7c0-3.3,0-6.5,0-9.9c-1.6,0.2-3.1,0.5-4.8,0.7
			C240.3,88.5,240.3,84.7,240.3,80.8z"/>
		<path class="st2" d="M242.6,31.5c14.7-1.1,14.1,22.5-0.6,22.7C244.4,46.7,244.4,39,242.6,31.5z"/>
	</g>
	<g>
		<path class="st3" d="M242.3,23.8c5.4,0,10.9,2.2,14.8,6.8c4.1,4.8,5.3,12,3.4,18c-0.9,2.8-3.8,5.4-4.1,8.1
			c-0.4,3.8,1.6,9,2.2,12.9c1.4,9.7,1.9,19.6,1.6,29.5c-0.3,9.8-2.4,19.2-3.2,28.9c11.2-1.8,21.9-4.4,31.7-10.5
			c4.8,9.6,9.7,19.3,14.7,29.2c-11.9,0-23.5,0-35.1,0c0,7.2,0,14.4-0.1,21.6c0,0.4,0.1,0.8,0.1,1.2c0,0,0.1,0,0.1,0
			c0.9,0,1.9-0.1,2.8-0.1c0.7,0,1.4,0.1,2,0.3c1.4,0.5,2.4,2,3.5,3.1c10,9.9,20,19.8,30.1,29.7c1.6,1.6,3.1,3.2,4.8,4.7
			c0.7,0.6,1,1.3,0.9,2.2c0,0.2,0,0.5,0,0.7c0,73.9,0,147.8,0,221.7c0,1.5-0.4,2.5-1.5,3.5c-12.2,12-24.4,24.1-36.6,36.2
			c-0.7,0.7-1.5,1-2.5,1c-33.1,0-66.2,0-99.4,0c-0.5,0-0.9,0-1.5,0c0-101,0-201.9,0-302.9c0.2,0,0.5-0.1,0.7-0.1
			c14.8,0,29.6,0,44.4,0c0.7-7.2,0.7-15.6,0-22.8c-11.6,0-23.2,0-35.1,0c5-9.9,9.8-19.5,14.7-29.2c9.7,6,20.4,8.7,31.7,10.5
			c-2.8-16.9-4.1-33.7-2.5-50.8c0.4-4.5,1-8.9,1.8-13.3c0.3-1.8,1-3.8,1.1-5.7c0.1-2.4-0.5-3-1.7-4.9c-3.1-5.1-4-11.2-1.9-16.9
			C227.1,28.1,234.6,23.8,242.3,23.8 M242.3,16l0,7.8L242.3,16c-11.6,0-21.6,6.9-25.4,17.6c-2.8,7.8-1.8,16.4,2.6,23.6
			c0.2,0.3,0.4,0.6,0.5,0.9c-0.1,0.5-0.2,1.1-0.4,1.7c-0.2,0.8-0.4,1.7-0.6,2.6c-0.8,4.5-1.4,9.2-1.9,13.9
			c-1.2,13.2-0.9,26.7,1,41.9c-6.2-1.5-12.5-3.7-18.4-7.4l-7.2-4.5l-3.8,7.6c-2.5,5-5,10-7.5,15c-2.4,4.7-4.7,9.4-7.2,14.2
			l-5.7,11.2H181h27.8c0.1,2.5,0.1,4.9,0,7.3c-12.4,0-24.8,0-37.1,0c-1,0-1.8,0.2-2.2,0.3l-6.2,1.2l0,6.4v302.9v7.8h7.8h1.5
			c33.1,0,66.2,0,99.4,0c3.1,0,5.7-1.1,7.9-3.3c10.8-10.8,23.7-23.4,36.6-36.2c2.5-2.5,3.8-5.5,3.8-9c0-63.3,0-127.8,0-190l0-31.7
			c0-0.1,0-0.2,0-0.3c0.2-3.1-0.9-6-3.3-8.2c-1-1-2-2-3.1-3c-0.5-0.5-1-1-1.5-1.5l-10-9.9c-6.7-6.6-13.4-13.2-20.1-19.9
			c-0.2-0.1-0.4-0.4-0.6-0.6c-1.1-1.3-2.8-3.1-5.5-4.2c0,0,0,0,0,0l0-5l0-3h27.4H316l-5.7-11.2l-1.4-2.8c-4.5-9-8.9-17.7-13.3-26.4
			l-3.8-7.6l-7.2,4.5c-5.9,3.7-12.4,5.9-18.6,7.5c0.1-0.5,0.2-1.1,0.2-1.6c0.8-5.6,1.6-11.4,1.8-17.4c0.3-10.4-0.3-20.7-1.7-30.7
			c-0.2-1.8-0.7-3.6-1.1-5.4c-0.4-1.6-1-4-1-5.2c0.2-0.4,0.6-1,0.9-1.5c1-1.5,2.2-3.3,2.9-5.6c2.7-8.7,0.7-18.6-5-25.3
			C257.8,19.5,250.3,16,242.3,16L242.3,16z"/>
		<path class="st3" d="M397.3,169.5c0,0.8,0,1.6,0,2.3c0,81.2,0,162.4,0,243.6c0,1.6,0.5,2.7,1.6,3.8c7.1,7.2,14.2,14.5,21.3,21.8
			c0.4,0.4,0.7,0.8,1.1,1.4c0.6-0.6,1.1-0.9,1.5-1.3c7.3-7.5,14.7-15,22-22.6c0.6-0.6,0.9-1.2,0.8-2c0-0.5,0-0.9,0-1.4
			c0-81.1,0-162.2,0-243.2c0-0.7,0-1.5,0-2.3c15.6,0,31,0,46.7,0c0,0.7,0,1.4,0,2.1c0,18.3,0,36.7,0,55c0,68.3,0,136.5,0,204.8
			c0,1.7-0.5,2.9-1.7,4.1c-12.2,11.9-24.3,23.9-36.4,35.9c-0.7,0.7-1.4,1-2.5,1c-10.1,0-20.1,0-30.2,0c-10.1,0-20.1,0-30.2,0
			c-1,0-1.7-0.3-2.5-1c-12.4-12.2-24.7-24.5-37.1-36.7c-0.7-0.7-1.1-1.3-1-2.3c0-0.3,0-0.6,0-0.9c0-86.6,0-173.2,0-259.8
			c0-0.8,0-1.5,0-2.3C366.3,169.5,381.7,169.5,397.3,169.5 M405,161.7h-7.8h-46.6h-7.8v7.8c0,0.8,0,1.6,0,2.4v259.8
			c0,0.1,0,0.2,0,0.3c-0.2,2.3,0.3,5.4,3.3,8.4c11.9,11.7,24,23.7,37.1,36.6c2.2,2.2,4.9,3.3,7.9,3.3c10.1,0,20.1,0,30.2,0
			c10.1,0,20.1,0,30.2,0c3.1,0,5.7-1.1,7.9-3.3c11.7-11.6,24.1-23.9,36.4-35.9c2.7-2.7,4.1-5.9,4.1-9.7c0-58.5,0-118,0-175.6l0-29.2
			v-55v-2.1v-7.8h-7.8h-46.7h-7.8v7.8v2.3v242.6c-4.8,4.9-9.6,9.8-14.4,14.8l-1.9,2c-5.4-5.5-10.9-11.2-16.4-16.8
			c0-69.3,0-139.7,0-207.9l0-34.8v-2.3V161.7L405,161.7z"/>
		<path class="st3" d="M141.6,169.5c-0.2,1.2-20.5,42-22.3,44.8c-21.5,0-43.1,0-64.8,0c0,27.4,0,54.7,0,82.2c24.3,0,48.5,0,72.7,0
			c-0.2,1.4-18.6,38.2-21.7,43.7c-16.9-2.4-33.9-4.7-51.1-7.1c0,0.9,0,1.6,0,2.3c0,37.2,0,74.4,0,111.6c0,1.2-0.3,2.2-1.2,3.1
			c-7.2,7.3-14.3,14.6-21.4,21.9c-0.2,0.2-0.3,0.4-0.5,0.7c-0.5-0.5-0.9-0.8-1.3-1.1c-7.1-7.3-14.2-14.6-21.3-21.8
			c-0.7-0.7-1.1-1.4-0.9-2.3c0-0.2,0-0.5,0-0.7c0-91.6,0-183.3,0-274.9c0-0.7,0-1.4,0-2.1C52.5,169.5,97.1,169.5,141.6,169.5
			 M150.6,161.7h-8.9H7.8H0v7.8v2.1v274.9c0,0.1,0,0.2,0,0.3c-0.2,2.2,0.3,5.3,3.2,8.2c5.2,5.3,10.4,10.6,15.5,15.8l5.8,5.9
			c0.5,0.5,0.9,0.9,1.3,1.2c0.1,0.1,0.2,0.2,0.4,0.3l6.4,5.7l5-7c0.1-0.1,0.1-0.2,0.2-0.2l3.2-3.3c5.8-6,11.9-12.2,17.8-18.2
			c2.3-2.3,3.4-5.2,3.4-8.6c0-29.7,0-60,0-89.2l0-15.7c13.8,1.9,27.5,3.8,41.1,5.7l1.2,0.2l5.2,0.7l2.6-4.5
			c1.8-3.2,7.7-14.8,12.2-23.8c10.1-20.3,10.2-21.2,10.5-22.5l1.6-9.1h-9.2h-65c0-22.3,0-44.5,0-66.7h57.1h4.2l2.3-3.5
			c1.4-2.2,8.3-15.8,12.2-23.8c11-22,11.1-22.7,11.3-24.2L150.6,161.7L150.6,161.7z"/>
	</g>
</g>
</svg>
