<?xml version="1.0" encoding="utf-8"?>
<!-- Generator: Adobe Illustrator 28.3.0, SVG Export Plug-In . SVG Version: 6.00 Build 0)  -->
<svg version="1.1" id="Layer_1" xmlns="http://www.w3.org/2000/svg" xmlns:xlink="http://www.w3.org/1999/xlink" x="0px" y="0px"
	 viewBox="0 0 500 500" style="enable-background:new 0 0 500 500;" xml:space="preserve">
<style type="text/css">
	.st0{fill:#01215C;}
	.st1{fill:#BB945C;}
	.st2{fill:#FEFEFE;}
</style>
<g>
	<path class="st0" d="M90.44,335.89c0.02-0.34-0.07-0.74,0.07-1.01c1.47-2.78,2.95-5.55,4.48-8.29c1.2-2.15,2.48-4.25,3.86-6.61
		c-1.51,0.28-2.88-0.25-4.18,0.48c-0.16,0.09-0.41,0.02-0.62,0c-2.41-0.22-4.8,0.28-7.16,0.56c-1.86,0.22-3.82-0.1-5.61,0.7
		c-0.06,0.03-0.14,0-0.21-0.01c-2-0.2-3.95,0.32-5.91,0.52c-2.94,0.31-5.94,0.31-8.81,1.15c-0.19,0.06-0.41,0-0.62,0
		c-2.24,0.02-4.43,0.55-6.64,0.76c-1.56,0.14-3.13,0.33-4.65,0.58c-1.59,0.26-3.2,0.26-4.79,0.68c-1.14,0.3-2.41,0.36-3.61,0.43
		c-1.3,0.08-2.62,0.29-3.8,0.61c-1.25,0.34-2.53,0.08-3.78,0.61c-0.98,0.41-2.25,0.25-3.39,0.46c-2.37,0.43-4.75,0.96-7.13,1.2
		c-2.1,0.21-4.14,0.66-6.19,1.01c-2.69,0.46-5.44,0.76-8.07,1.57c-0.18,0.05-0.39-0.02-0.57-0.04c-0.31-0.34-0.23-0.72-0.06-0.98
		c2.46-3.93,4.87-7.89,7.43-11.76c2.38-3.59,4.88-7.11,7.4-10.61c2.18-3.02,4.39-6.02,6.76-8.9c2.77-3.35,5.44-6.79,8.18-10.17
		c0.82-1.01,1.76-1.9,2.57-2.94c1.26-1.62,2.72-3.09,4.11-4.62c2-2.19,4.06-4.32,6.03-6.53c4.33-4.87,9.11-9.28,13.66-13.93
		c2.32-2.36,4.89-4.46,7.26-6.78c2.24-2.21,4.67-4.23,7.07-6.27c3.38-2.88,6.72-5.8,10.22-8.52c5.35-4.15,10.72-8.27,16.21-12.23
		c4.99-3.59,10.08-7.03,15.22-10.38c4.6-2.99,9.29-5.88,14.09-8.55c3.86-2.15,7.7-4.33,11.57-6.45c4.52-2.47,9.11-4.81,13.78-6.97
		c5.55-2.57,11.05-5.28,16.79-7.44c2.42-0.91,4.8-1.97,7.2-2.94c3.33-1.35,6.71-2.56,10.08-3.8c3.99-1.47,8.01-2.85,12.07-4.11
		c5.65-1.76,11.3-3.49,17.05-4.94c3.87-0.98,7.72-2.04,11.62-2.93c1.75-0.4,3.48-0.93,5.27-1.15c0.74-0.09,1.33-0.86,2.05-0.35
		c1.73-1.24,2.48-3.08,3.65-4.57c1.56-1.98,3.07-3.99,4.8-5.81c3-3.16,6.07-6.25,9.44-9.02c2.93-2.41,5.91-4.77,8.97-7.04
		c3.69-2.74,7.49-5.31,11.34-7.82c3.03-1.97,6.19-3.75,9.3-5.6c7.13-4.25,14.65-7.78,21.98-11.65c5.41-2.85,10.59-6.11,15.47-9.84
		c3.19-2.44,6.07-5.18,8.79-8.09c2.69-2.87,4.81-6.18,6.08-9.9c0.6-1.75,0.97-3.62,1.02-5.53c0.46-0.15,0.84,0.24,1.01,0.41
		c1.87,1.76,3.81,3.47,5.44,5.44c1.71,2.07,3.36,4.2,4.69,6.58c1.27,2.28,2.49,4.58,3.39,7.02c0.74,1.99,1.27,4.05,1.86,6.1
		c0.3,1.04-0.12,2.21,0.64,3.13c0.07,3.15,0.79,6.3,0.37,9.45c-0.41,3.12-0.75,6.24-1.55,9.31c-0.78,2.97-1.62,5.89-2.82,8.72
		c-1.47,3.49-2.88,7.01-4.36,10.5c-1.2,2.82-1.94,5.79-2.96,8.54c0.65,1.28,1.89,0.96,2.78,1.19c3.42,0.87,6.82,1.85,10.23,2.75
		c4.12,1.09,8.07,2.68,12.09,4.04c2.95,1,5.73,2.5,8.64,3.66c4.29,1.71,8.34,3.91,12.44,6c4.23,2.16,8.31,4.63,12.31,7.19
		c2.61,1.67,5.14,3.46,7.69,5.21c2.46,1.69,4.77,3.58,7.12,5.41c3.79,2.96,7.46,6.04,10.77,9.54c2.15,2.28,3.93,4.83,5.59,7.47
		c1.53,2.44,2.67,5.06,3.49,7.82c0.38,1.27,0.79,2.54,1.07,3.83c0.33,1.54,1.19,2.6,2.48,3.47c3.1,2.08,6.04,4.36,8.92,6.74
		c4.11,3.38,7.96,7.03,11.59,10.89c2.7,2.87,5.21,5.92,7.6,9.08c2.97,3.94,5.4,8.16,7.54,12.59c0.56,1.15,0.91,2.36,1.35,3.54
		c0.16,0.43,0.16,0.95,0.1,1.41c-0.45,3.09-1.47,5.9-3.42,8.44c-1.53,1.99-3.45,3.44-5.48,5.01c-1.51,3.99-3.55,7.86-6.37,11.21
		c-2.38,2.82-5.14,5.26-8.41,7.12c-3.03,1.72-6.11,3.27-9.47,4.21c-2.25,0.63-4.52,1.16-6.8,1.65c-2.37,0.52-4.81,0.55-7.65,1.42
		c-0.52,0.28-0.89,1.39-1.63,2.19c-2.78,2.96-5.98,5.39-9.4,7.52c-2.72,1.69-5.64,3.01-8.57,4.32c-3.06,1.37-6.24,2.31-9.4,3.35
		c-1.13,0.37-2.28,0.82-3.58,0.68c-0.39-0.53-0.34-1.33-0.11-1.73c0.66-1.13,0.38-2.38,0.67-3.55c0.55-2.21,0.75-4.52,1.01-6.81
		c0.32-2.83,0.7-5.64,0.86-8.5c0.06-1.05,0.28-2.13,0.32-3.34c-2.28-1.13-4.74-1.94-7.19-2.67c-2.55-0.76-5.22-1.09-7.83-1.67
		c-0.6-0.13-1.25,0-1.87-0.05c-0.87-0.08-1.72,0.05-2.61-0.31c-0.69-0.28-1.69-0.18-2.42,0.09c-0.63,0.23-1.21,0.21-1.8,0.21
		c-2.66,0.01-5.21,0.59-7.76,1.27c-2.99,0.79-5.73,2.12-8.46,3.5c-0.62,0.32-1.16,0.71-1.64,1.24c-0.61,2.31-0.83,4.72-1.37,7.06
		c-0.56,2.4-0.94,4.83-1.51,7.23c-0.27,1.14-0.71,2.35-0.54,3.61c0.12,0.89-0.5,1.66-0.43,2.58c0.06,0.85-0.03,1.71-0.28,2.61
		c-0.26,0.92-0.34,2.06,0.14,3.03c0.41,0.83,0.13,1.71,0.39,2.59c0.87,2.89,2.76,4.89,5.14,6.52c2.08,1.41,4.42,2.06,6.88,2.58
		c2.41,0.51,4.82,0.49,7.18,0.25c3.03-0.32,6.01-1.14,8.92-2.16c2.33-0.81,4.64-1.67,6.83-2.79c0.68-0.35,1.49-0.18,1.99-0.96
		c2.47,9.46-0.89,19.28-7.97,27.03c-0.07,2.34-0.45,4.71-1.26,7.02c-1.12,3.19-3.1,5.78-5.8,7.7c-3.05,2.18-6.41,3.81-9.96,5.09
		c-2.32,0.84-4.63,1.67-7.05,2.16c-1.25,0.25-2.5,0.5-3.74,0.75c-3.22,0.65-6.45,0.38-9.68,0.36c-5.49-0.04-10.57-1.49-15.25-4.47
		c-3.48-2.21-6.62-4.74-9.2-7.97c-0.98-1.23-2.11-2.34-3.14-3.54c-3.41-3.97-6.8-7.95-10.61-11.57c-4.3-4.09-9.09-7.44-14.49-9.92
		c-3.28-1.51-6.72-2.52-10.11-3.69c-1.38,0.19-2.66-0.63-4.03-0.45c-1.18,0.15-2.25-0.46-3.42-0.4c-5.27,0.25-10.38,1.13-15.31,3.12
		c-3.47,1.4-6.56,3.38-9.52,5.55c-4.28,3.13-7.58,7.23-10.36,11.72c-2.94,4.74-5.02,9.82-6.34,15.27c-0.58,2.4-1.09,4.83-1.47,7.24
		c-0.26,1.65-0.52,3.36-0.52,5.07c0,3.61,0.05,7.21-0.03,10.82c-0.02,1.05,0.47,1.96,0.46,3c-0.01,0.99-0.11,1.98,0.3,3.03
		c0.37,0.94,0.28,2.12,0.42,3.19c0.22,1.74,0.6,3.44,0.91,5.16c0.04,0.23-0.06,0.38-0.26,0.51c-0.62-0.04-0.88-0.61-1.28-0.96
		c-1.8-1.6-3.29-3.54-5.31-4.9c-1.77-2.55-4.37-4.36-6.18-6.88c-0.79-1.11-1.81-2.05-2.7-3.09c-2.51-2.95-4.81-6.06-7.08-9.19
		c-2.58-3.54-4.94-7.22-7.09-11.02c-2.2-3.88-4.23-7.86-5.97-12c-1.75-4.17-3.34-8.37-4.61-12.73c-0.65-2.24-1.2-4.5-1.83-6.74
		c-0.43-1.54-0.78-3.12-0.99-4.7c-0.32-2.41-0.65-4.82-0.96-7.23c-0.36-2.75-0.24-5.48-0.34-8.21c-0.02-0.49,0.03-0.98-0.67-1.41
		c-0.31-0.15-0.87,0-1.41-0.01c-4.51-0.03-9.03-0.02-13.54-0.06c-0.87-0.01-1.72,0.08-2.61-0.29c-0.69-0.29-1.67-0.16-2.43,0.09
		c-0.55,0.18-1.06,0.2-1.59,0.21c-1.53,0.02-3.06,0.05-4.58,0c-7.33-0.21-14.64,0.3-21.96,0.55c-2.45,0.08-4.95,0.05-7.37,0.4
		c-2.12,0.3-4.29-0.02-6.33,0.43c-2.15,0.47-4.37-0.12-6.45,0.7c-0.18,0.07-0.41,0.03-0.62,0.01c-2.41-0.21-4.77,0.4-7.17,0.52
		c-2.63,0.14-5.25,0.59-7.88,0.81c-2.28,0.2-4.56,0.55-6.84,0.84c-2.8,0.36-5.62,0.7-8.39,1.24c-2.55,0.5-5.16,0.74-7.65,1.56
		C91.6,336.02,91,335.89,90.44,335.89L90.44,335.89z M65.86,304.26c1.76-0.07,3.51-0.12,5.28-0.3c2.01-0.21,4.03-0.78,6.09-0.54
		c0.21,0.02,0.46,0.08,0.62-0.01c0.88-0.53,1.85-0.45,2.78-0.38c0.98,0.08,1.85-0.35,2.78-0.41c1.48-0.11,2.95-0.06,4.45-0.37
		c1.5-0.32,3.08-0.13,4.64-0.42c1.78-0.33,3.68,0.15,5.47-0.48c3.85,0.28,7.66-0.63,11.51-0.43c0.82,0.04,1.65,0.01,2.56,0.01
		c1.22-1.53,2.35-3.14,3.67-4.58c1.98-2.16,3.75-4.52,5.8-6.59c4.08-4.11,8-8.38,12.42-12.16c2.43-2.08,4.79-4.26,7.25-6.31
		c1.61-1.35,3.23-2.7,4.9-3.96c3.52-2.64,7.18-5.09,10.82-7.57c3.23-2.21,6.57-4.25,9.97-6.2c1.32-0.76,2.6-1.58,3.95-2.27
		c1.93-0.98,3.76-2.2,5.88-2.79l0,0c-0.02,0.27,0.1,0.58-0.19,0.76c-2.87,1.86-5.25,4.32-7.74,6.62c-4.04,3.72-7.8,7.74-11.33,11.98
		c-1.57,1.88-3.2,3.73-4.65,5.67c-2.79,3.73-5.51,7.52-7.98,11.49c-2.87,4.62-5.45,9.38-7.89,14.22c-0.24,0.48-0.39,0.86,0.01,1.28
		c1.5,0.05,2.98,0.2,4.46,0.34c3.48,0.32,6.99-0.13,10.48,0.46c1.94,0.33,3.92,0.04,5.91,0.35c2.19,0.35,4.48,0.38,6.72,0.44
		c2.61,0.07,5.16,0.74,7.77,0.5c0.07-0.01,0.16-0.03,0.21,0c0.94,0.59,1.98,0.42,2.99,0.39c1.03-0.04,2.01,0.41,2.98,0.38
		c2.34-0.08,4.6,0.75,6.94,0.48c0.2-0.02,0.49-0.09,0.61,0.01c0.79,0.71,1.74,0.42,2.58,0.35c0.94-0.08,1.67,0.55,2.57,0.46
		c1.92-0.2,3.76,0.67,5.69,0.43c0.14-0.02,0.33-0.06,0.4,0.01c0.71,0.68,1.6,0.44,2.37,0.36c0.85-0.09,1.49,0.77,2.32,0.38
		c0.64-0.75,0.4-1.69,0.63-2.5c0.75-2.66,1.31-5.38,2.13-8.01c1.61-5.14,3.6-10.15,5.86-15.04c2.03-4.38,4.29-8.66,6.99-12.67
		c2.09-3.11,4.14-6.23,6.41-9.23c2.16-2.87,4.4-5.68,6.84-8.27c4.14-4.41,8.37-8.74,13.17-12.49c2.92-2.28,5.77-4.63,8.85-6.69
		c5.02-3.35,10.07-6.66,15.52-9.29c3.26-1.57,6.47-3.25,9.88-4.51c1.97-0.73,3.93-1.47,5.92-2.17c2.12-0.75,4.28-1.3,6.45-1.87
		c0.9-0.24,1.76-0.67,2.81-0.18c-6.84,3-13.37,6.4-19.52,10.56c-6.32,4.27-12.19,9.02-17.6,14.38
		c-5.46,5.41-10.27,11.38-14.38,17.84c-3.95,6.19-7.53,12.65-10.02,20.15c2.33-1.94,4.03-3.79,5.91-5.46c2.8-2.49,5.64-4.92,8.6-7.2
		c2.12-1.63,4.28-3.24,6.53-4.68c3.35-2.15,6.79-4.15,10.21-6.18c0.55-0.33,1.18-0.68,1.9-0.51c0,0,0,0,0,0
		c-1.68,1.88-3.29,3.83-5.05,5.63c-1.76,1.81-3.3,3.82-4.81,5.81c-2.26,2.96-4.55,5.92-6.42,9.17c-1.42,2.47-3.04,4.83-4.35,7.35
		c-1.33,2.57-2.69,5.12-3.79,7.82c-1.46,3.59-3.06,7.12-4.13,10.85c-0.47,1.64-1.2,3.19-1.48,4.91c-0.29,1.75-1.28,3.35-1.22,5.2
		c-1.04,2.26-1.09,4.76-1.61,7.14c-0.41,1.88-0.69,3.84-0.8,5.75c-0.11,1.97-0.54,3.91-0.51,5.89c0.04,2.98,0.01,5.96,0.01,8.94
		c0,0.42-0.15,0.92,0.03,1.23c0.58,1.04,0.44,2.15,0.35,3.2c-0.1,1.13,0.57,2.09,0.46,3.19c-0.14,1.3,0.68,2.49,0.43,3.81
		c0.77,0.6,0.07,1.7,0.89,2.64c1.32-2.71,3.5-4.46,5.26-6.57c2.06-2.46,4.66-4.42,7.19-6.38c2.47-1.91,5.09-3.62,7.88-5.04
		c3.4-1.73,6.82-3.42,10.46-4.64c0.96-0.32,2.04-0.31,2.89-0.96c1.42-0.06,2.71-0.72,4.13-0.9c1.87-0.23,3.72-0.62,5.58-0.9
		c1.93-0.28,3.88-0.56,5.82-0.67c3.25-0.19,6.53,0.01,9.79-0.1c2.82-0.09,5.57,0.66,8.85,0.46c-1.99,1.25-3.86,1.6-5.46,2.5
		c-1.62,0.92-3.61,1.19-5.15,2.72c2.88,0.41,5.45,1.12,8,1.89c1.77,0.54,3.47,1.35,5.2,2.03c2.99,1.18,5.86,2.61,8.59,4.31
		c3.4,2.11,6.63,4.43,9.68,7.05c3.72,3.19,6.99,6.73,9.79,10.71c2.83,4.02,5.73,7.95,9.68,11.01c2.89,2.24,5.91,4.23,9.36,5.45
		c1.37,0.49,2.83,0.82,4.28,0.99c3.5,0.41,6.96-0.17,10.36-0.89c2.72-0.57,5.41-1.45,8-2.45c2.56-0.99,5.22-1.98,6.84-4.48
		c0-0.62,0-1.25,0-1.76c-0.32-0.78-0.89-1.33-0.86-2.28c2.61-1.64,5.37-3.23,7.65-5.48c2.33-2.3,4.64-4.6,5.74-7.79
		c-0.37-0.44-0.77-0.26-1.14-0.11c-1.72,0.71-3.43,1.47-5.16,2.16c-3.5,1.38-7.15,2.23-10.86,2.65c-3.34,0.38-6.62-0.23-9.84-1.18
		c-3.36-0.99-6.15-2.91-8.3-5.6c-2.97-3.72-4.35-8.15-4.64-12.82c-0.17-2.78-0.08-5.59,0.21-8.42c0.32-3.17,0.95-6.32,0.98-9.53
		c0-0.28-0.11-0.63,0.03-0.81c0.69-0.95,0.35-2.02,0.35-3.02c0-1.04,0.43-1.96,0.46-3c0.04-1.32-0.36-2.55-0.43-3.83
		c-0.08-1.31-0.63-2.43-1.22-3.57c-0.59-1.13-1.85-1.5-2.54-2.49c0.86-0.89,1.71-1.66,2.72-2.28c1.49-0.91,2.95-1.87,4.44-2.78
		c3.09-1.88,6.33-3.48,9.74-4.68c3.52-1.23,7.05-2.41,10.76-3.05c2.24-0.39,4.51-0.96,6.75-1.04c5.34-0.19,10.71-0.49,16.01,0.7
		c1.89,0.42,3.81,0.71,5.66,1.3c4.15,1.31,8.2,2.83,11.8,5.37c0.51,0.36,1.01,0.67,1.15,0.94c0.47,3.47-0.11,6.61-0.32,9.75
		c-0.2,3.11-0.85,6.19-1.77,9.55c6.92-4.54,12.4-9.88,16.27-16.82c0.7,0.08,1.29-0.51,2.09-0.49c2.58,0.07,5.06-0.6,7.56-1.21
		c6.03-1.47,11.32-3.93,15.23-6.9c4.02-3.05,5.01-7.02,4.34-11.53c-0.44-2.95-2.94-7.53-6.25-9.82c-0.33-0.22-0.69-0.47-0.81-0.91
		c0.84,0.18,1.52-0.52,2.36-0.43c1.48,0.16,2.94,0.03,4.46,0.33c2.75,0.55,5.38,1.32,7.92,2.45c0.39,0.17,0.76,0.29,1.12-0.03
		c-1.56-2.81-3.38-5.45-5.38-7.97c-1.35-1.7-2.8-3.33-4.13-5.03c-1.95-2.49-4.31-4.57-6.35-6.96c-2.35-2.75-5.3-4.94-8-7.36
		c-1.77-1.59-3.68-2.95-5.61-4.31c-1.69-1.19-3.3-2.52-4.53-4.17c-1.79-2.38-3.09-5.05-3.91-7.95c-0.66-2.33-1.37-4.68-2.51-6.83
		c-1.39-2.61-3.08-5.05-5.2-7.14c-1.02-1.01-2.16-1.89-3.2-2.86c-1.85-1.72-3.87-3.23-5.82-4.81c-2.7-2.18-5.63-4.07-8.48-6.07
		c-4.46-3.13-9.11-5.97-13.95-8.48c-6.55-3.39-13.17-6.61-20.15-9.1c-4.33-1.55-8.75-2.84-13.06-4.46c-1.84,0.01-3.41-1.04-5.2-1.28
		c-1.74-0.24-3.45-0.76-5.25-1.17c-0.39,4.85,0.46,9.47,2.05,14.04c-0.86,0.21-1.33-0.33-1.74-0.64c-2.01-1.53-3.81-3.24-5.39-5.25
		c-3.22-4.09-4.54-8.79-4.98-13.84c-0.17-1.98,0.25-3.93,0.36-5.9c0.08-1.36,0.3-2.72,0.58-3.99c0.58-2.69,1.31-5.37,2.1-8.02
		c0.9-3.02,1.98-5.98,3.05-8.95c0.98-2.74,1.57-5.58,2.19-8.41c0.24-1.09,0.06-2.26-0.3-3.41c-0.24-0.78-1.18-1-1.03-1.67
		c-1.92-1.2-3.89-1.7-5.92-1.39c-1.28,0.2-2.57,0.17-3.82,0.4c-2.53,0.47-5.05,1.04-7.52,1.78c-4.66,1.4-9.18,3.23-13.58,5.3
		c-3.1,1.46-6.19,3-9.13,4.81c-1.97,1.21-4.04,2.28-5.99,3.54c-4.68,3.01-9.25,6.16-13.57,9.69c-2.79,2.28-5.57,4.58-8.19,7.05
		c-4.1,3.86-7.89,8-11.26,12.51c-1.71,2.29-3.32,4.66-4.72,7.16c-2.42,4.33-4.54,8.79-5.65,13.64c-0.46,2.01-0.73,4.08-0.91,6.14
		c-0.15,1.65-0.1,3.33-0.01,4.99c0.07,1.33,0.2,2.69,0.55,3.97c0.56,2.09,1.15,4.18,1.89,6.22c0.25,0.7,0.96,1.28,0.83,2.12
		c-0.23,0.04-0.41,0.14-0.48,0.08c-2.57-2.1-5.12-4.23-7.7-6.32c-0.87-0.7-1.31-1.73-2.09-2.5c-2.46-2.44-4.34-5.29-5.83-8.38
		c-1.63-3.38-2.64-6.96-2.6-10.76c0.01-0.89,0-1.78,0-2.6c-0.46-0.37-0.93-0.29-1.27-0.19c-2.52,0.74-5.04,1.51-7.54,2.33
		c-4.37,1.43-8.74,2.87-13.08,4.38c-2.73,0.95-5.45,1.94-8.11,3.07c-3.39,1.44-6.83,2.77-10.22,4.2c-3.09,1.31-6.17,2.64-9.2,4.05
		c-3.22,1.5-6.43,3.08-9.57,4.76c-3.32,1.77-6.78,3.28-10.04,5.15c-3.05,1.75-6.09,3.51-9.14,5.25c-4.9,2.8-9.67,5.8-14.42,8.83
		c-2.7,1.72-5.35,3.51-7.97,5.35c-2.91,2.05-5.76,4.17-8.61,6.29c-2.11,1.57-4.18,3.18-6.26,4.78c-1.61,1.24-3.18,2.54-4.76,3.8
		c-2.01,1.6-4.01,3.2-5.95,4.88c-1.55,1.34-3.07,2.76-4.64,4.05c-2.06,1.69-4.06,3.47-5.93,5.31c-6.16,6.07-12.53,11.93-18.21,18.47
		c-1.12,1.29-2.33,2.49-3.45,3.79c-2.26,2.63-4.54,5.23-6.67,7.97c-1.82,2.35-3.86,4.55-5.61,6.96c-1.85,2.55-3.62,5.16-5.57,7.63
		C65.8,303.78,65.87,304.06,65.86,304.26c-0.19,0.02-0.38,0.03-0.31,0.32C65.82,304.62,65.86,304.46,65.86,304.26z"/>
	<path class="st0" d="M90.44,335.89c-0.01,0.2-0.05,0.36-0.31,0.31C90.07,335.92,90.24,335.89,90.44,335.89L90.44,335.89z"/>
	<path class="st1" d="M176.69,248.49c-2.12,0.59-3.95,1.81-5.88,2.79c-1.35,0.69-2.64,1.51-3.95,2.27c-3.4,1.95-6.74,3.99-9.97,6.2
		c-3.63,2.48-7.3,4.93-10.82,7.57c-1.67,1.25-3.29,2.61-4.9,3.96c-2.46,2.06-4.82,4.23-7.25,6.31c-4.41,3.79-8.34,8.05-12.42,12.16
		c-2.05,2.07-3.82,4.43-5.8,6.59c-1.32,1.44-2.45,3.05-3.67,4.58c-0.92,0-1.74,0.04-2.56-0.01c-3.85-0.19-7.66,0.71-11.51,0.43
		c-1.79,0.63-3.68,0.15-5.47,0.48c-1.56,0.29-3.15,0.1-4.64,0.42c-1.5,0.32-2.97,0.27-4.45,0.37c-0.93,0.07-1.8,0.49-2.78,0.41
		c-0.93-0.08-1.9-0.16-2.78,0.38c-0.15,0.09-0.41,0.03-0.62,0.01c-2.06-0.24-4.08,0.33-6.09,0.54c-1.77,0.18-3.52,0.23-5.28,0.3l0,0
		c0.01-0.21-0.06-0.48,0.04-0.61c1.95-2.47,3.73-5.08,5.57-7.63c1.74-2.41,3.78-4.6,5.61-6.96c2.12-2.74,4.41-5.34,6.67-7.97
		c1.12-1.3,2.33-2.5,3.45-3.79c5.68-6.54,12.05-12.4,18.21-18.47c1.87-1.85,3.87-3.62,5.93-5.31c1.58-1.3,3.09-2.71,4.64-4.05
		c1.94-1.67,3.95-3.28,5.95-4.88c1.59-1.26,3.15-2.56,4.76-3.8c2.08-1.6,4.15-3.21,6.26-4.78c2.85-2.12,5.7-4.24,8.61-6.29
		c2.62-1.84,5.27-3.63,7.97-5.35c4.75-3.03,9.52-6.03,14.42-8.83c3.05-1.74,6.09-3.5,9.14-5.25c3.27-1.88,6.73-3.38,10.04-5.15
		c3.15-1.68,6.35-3.26,9.57-4.76c3.03-1.41,6.12-2.74,9.2-4.05c3.39-1.43,6.83-2.76,10.22-4.2c2.66-1.13,5.38-2.13,8.11-3.07
		c4.34-1.51,8.71-2.95,13.08-4.38c2.5-0.82,5.01-1.59,7.54-2.33c0.34-0.1,0.81-0.17,1.27,0.19c0,0.82,0.01,1.71,0,2.6
		c-0.04,3.81,0.97,7.38,2.6,10.76c1.49,3.09,3.38,5.95,5.83,8.38c0.78,0.77,1.22,1.79,2.09,2.5c2.58,2.09,5.13,4.22,7.7,6.32
		c0.07,0.05,0.25-0.04,0.48-0.08c0.13-0.85-0.57-1.42-0.83-2.12c-0.74-2.04-1.33-4.13-1.89-6.22c-0.35-1.28-0.47-2.64-0.55-3.97
		c-0.09-1.66-0.14-3.34,0.01-4.99c0.18-2.06,0.45-4.13,0.91-6.14c1.11-4.86,3.24-9.32,5.65-13.64c1.4-2.5,3.01-4.87,4.72-7.16
		c3.37-4.51,7.16-8.65,11.26-12.51c2.62-2.47,5.4-4.76,8.19-7.05c4.32-3.53,8.9-6.68,13.57-9.69c1.95-1.25,4.01-2.32,5.99-3.54
		c2.94-1.81,6.02-3.34,9.13-4.81c4.4-2.07,8.92-3.9,13.58-5.3c2.46-0.74,4.99-1.31,7.52-1.78c1.25-0.23,2.54-0.2,3.82-0.4
		c2.03-0.31,4,0.19,5.92,1.39c-0.15,0.68,0.79,0.9,1.03,1.67c0.36,1.15,0.54,2.32,0.3,3.41c-0.62,2.83-1.21,5.67-2.19,8.41
		c-1.06,2.97-2.14,5.93-3.05,8.95c-0.79,2.65-1.53,5.33-2.1,8.02c-0.27,1.27-0.5,2.63-0.58,3.99c-0.11,1.96-0.53,3.92-0.36,5.9
		c0.44,5.05,1.76,9.74,4.98,13.84c1.58,2.01,3.38,3.73,5.39,5.25c0.41,0.31,0.88,0.85,1.74,0.64c-1.59-4.57-2.44-9.19-2.05-14.04
		c1.81,0.41,3.51,0.93,5.25,1.17c1.79,0.25,3.36,1.29,5.2,1.28c4.31,1.62,8.72,2.91,13.06,4.46c6.98,2.49,13.6,5.71,20.15,9.1
		c4.83,2.5,9.48,5.35,13.95,8.48c2.85,1.99,5.78,3.89,8.48,6.07c1.95,1.58,3.98,3.08,5.82,4.81c1.04,0.97,2.18,1.85,3.2,2.86
		c2.13,2.1,3.82,4.53,5.2,7.14c1.14,2.15,1.85,4.5,2.51,6.83c0.82,2.9,2.12,5.56,3.91,7.95c1.23,1.64,2.84,2.98,4.53,4.17
		c1.93,1.36,3.84,2.72,5.61,4.31c2.7,2.42,5.65,4.61,8,7.36c2.04,2.39,4.4,4.47,6.35,6.96c1.33,1.7,2.78,3.33,4.13,5.03
		c2,2.52,3.82,5.15,5.38,7.97c-0.36,0.32-0.74,0.2-1.12,0.03c-2.55-1.13-5.18-1.9-7.92-2.45c-1.52-0.3-2.98-0.18-4.46-0.33
		c-0.84-0.09-1.52,0.6-2.36,0.43c-0.2-0.02-0.49,0.04-0.59-0.07c-0.87-1-2.12-1.45-3.26-1.86c-2.02-0.72-4.08-1.41-6.2-1.85
		c-2.18-0.45-4.39-0.59-6.58-0.74c-4.36-0.3-8.74-0.14-13.02,0.81c-1.6,0.35-3.22,0.64-4.8,1.16c-1.88,0.62-3.69,1.35-5.51,2.1
		c-2.56,1.05-4.91,2.37-6.91,4.27c-1.82,1.74-3.71,3.43-4.76,5.74c-0.85,0-1.6,0.18-2.2-0.04c-1.63-0.59-3.3-0.89-4.96-1.3
		c-1.87-0.47-3.77-0.7-5.64-1.09c-2.01-0.42-4.11-0.48-6.15-0.86c-1.14-0.21-2.36-0.13-3.53-0.02c-1.19,0.11-2.23-0.43-3.39-0.48
		c-4.83-0.18-9.62,0.47-14.44,0.46c-0.21,0-0.5-0.1-0.61,0c-0.78,0.74-1.72,0.36-2.58,0.38c-0.89,0.01-1.66,0.43-2.56,0.5
		c-2.18,0.17-4.37,0.43-6.48,1.07c-0.35,0.1-0.68,0.16-0.99,0.11c-0.98-0.18-1.91,0.14-2.74,0.47c-0.94,0.38-1.91,0.51-2.85,0.77
		c-2.41,0.65-4.84,1.23-7.22,2c-4.67,1.52-9.33,3.06-13.87,4.98c-3.98,1.68-7.91,3.43-11.89,5.32c4.18,1.02,8.38,1.61,12.13,3.75
		c-0.7,0.08-1.25,0.45-1.87,0.64c-5.97,1.82-11.71,4.25-17.34,6.92c-4.24,2.01-8.32,4.29-12.33,6.75
		c-3.47,2.13-6.85,4.35-10.07,6.83c-1.61,1.24-3.12,2.62-4.74,3.82c-1.98,1.47-3.41,3.54-5.53,4.83c-0.17,0.1-0.36,0.26-0.43,0.44
		c-0.36,0.94-1.17,1.49-1.82,2.18c-0.96,1-1.94,1.99-2.94,2.95c-0.33,0.32-0.5,0.64-0.43,1.09c-0.85,0.64-1.93,0.64-2.89,0.96
		c-3.64,1.21-7.06,2.9-10.46,4.64c-2.8,1.42-5.42,3.14-7.88,5.04c-2.53,1.96-5.13,3.92-7.19,6.38c-1.76,2.11-3.94,3.86-5.26,6.57
		c-0.81-0.94-0.11-2.04-0.89-2.64c0.26-1.31-0.56-2.51-0.43-3.81c0.12-1.1-0.56-2.06-0.46-3.19c0.1-1.05,0.24-2.16-0.35-3.2
		c-0.18-0.32-0.03-0.82-0.03-1.23c0-2.98,0.02-5.96-0.01-8.94c-0.02-1.98,0.41-3.91,0.51-5.89c0.1-1.91,0.39-3.87,0.8-5.75
		c0.52-2.38,0.57-4.88,1.61-7.14c-0.06-1.85,0.93-3.45,1.22-5.2c0.29-1.71,1.01-3.27,1.48-4.91c1.07-3.73,2.67-7.26,4.13-10.85
		c1.1-2.69,2.45-5.25,3.79-7.82c1.31-2.52,2.94-4.88,4.35-7.35c1.87-3.25,4.16-6.21,6.42-9.17c1.52-1.99,3.05-3.99,4.81-5.81
		c1.76-1.81,3.37-3.75,5.05-5.63c0.21-0.04,0.48-0.05,0.27-0.39c-0.21,0.06-0.28,0.2-0.27,0.39c-0.72-0.17-1.35,0.18-1.9,0.51
		c-3.43,2.02-6.86,4.03-10.21,6.18c-2.25,1.44-4.41,3.05-6.53,4.68c-2.96,2.28-5.8,4.71-8.6,7.2c-1.88,1.66-3.58,3.52-5.91,5.46
		c2.5-7.5,6.07-13.95,10.02-20.15c4.12-6.45,8.92-12.42,14.38-17.84c5.41-5.36,11.28-10.12,17.6-14.38
		c6.15-4.16,12.68-7.56,19.52-10.56c-1.05-0.49-1.91-0.06-2.81,0.18c-2.16,0.57-4.32,1.12-6.45,1.87c-1.98,0.7-3.95,1.44-5.92,2.17
		c-3.41,1.26-6.62,2.94-9.88,4.51c-5.46,2.63-10.5,5.94-15.52,9.29c-3.08,2.06-5.94,4.41-8.85,6.69c-4.8,3.75-9.03,8.08-13.17,12.49
		c-2.44,2.6-4.68,5.41-6.84,8.27c-2.26,3-4.32,6.12-6.41,9.23c-2.7,4.01-4.96,8.3-6.99,12.67c-2.26,4.88-4.25,9.9-5.86,15.04
		c-0.83,2.63-1.39,5.35-2.13,8.01c-0.23,0.81,0.01,1.76-0.63,2.5c-0.84,0.39-1.47-0.47-2.32-0.38c-0.77,0.08-1.66,0.32-2.37-0.36
		c-0.07-0.07-0.27-0.02-0.4-0.01c-1.93,0.25-3.77-0.63-5.69-0.43c-0.9,0.09-1.64-0.53-2.57-0.46c-0.84,0.07-1.8,0.36-2.58-0.35
		c-0.11-0.1-0.4-0.04-0.61-0.01c-2.34,0.27-4.6-0.56-6.94-0.48c-0.97,0.03-1.95-0.42-2.98-0.38c-1,0.03-2.05,0.2-2.99-0.39
		c-0.05-0.03-0.14-0.01-0.21,0c-2.61,0.24-5.17-0.44-7.77-0.5c-2.24-0.06-4.53-0.1-6.72-0.44c-1.99-0.32-3.98-0.03-5.91-0.35
		c-3.49-0.59-7.01-0.13-10.48-0.46c-1.48-0.14-2.96-0.29-4.46-0.34c-0.4-0.43-0.25-0.8-0.01-1.28c2.44-4.85,5.02-9.6,7.89-14.22
		c2.47-3.98,5.19-7.76,7.98-11.49c1.46-1.94,3.09-3.79,4.65-5.67c3.53-4.23,7.29-8.25,11.33-11.98c2.49-2.29,4.87-4.75,7.74-6.62
		C176.79,249.07,176.68,248.76,176.69,248.49c0.26-0.02,0.56,0.1,0.79-0.19C177.1,247.89,176.85,247.96,176.69,248.49z
		 M308.23,198.25c-1.62-0.59-2.66-1.54-3.82-2.31c-1.24-0.84-2.23-2.08-3.3-3.16c-2.68-2.72-4.69-5.81-5.26-9.67
		c-0.75-0.8-0.09-1.92-0.55-2.72c-0.44-0.75-0.45-1.63-0.2-2.18c0.55-1.21,0.16-2.43,0.43-3.73c0.13-0.13,0.32-0.33,0.58-0.59
		c0.74,2.23,2.55,3.38,4.2,4.62c0.39,0.29,1.11,0.99,1.75,0.29c0.24-2.16-0.05-4.25,0.36-6.39c0.31-1.63,0.56-3.33,1.07-4.86
		c1.23-3.7,3.07-7.15,5.26-10.39c1.7-2.51,3.6-4.87,5.54-7.2c0.22-0.27,0.49-0.5,0.2-0.85c-0.21-0.11-0.39-0.11-0.58-0.01
		c-2.1,1.14-4.21,2.25-6.2,3.59c-2.44,1.65-4.84,3.35-7.2,5.12c-3.79,2.84-7.26,6.01-10.55,9.4c-1.14,1.17-2.3,2.37-3.22,3.71
		c-1.38,2.02-2.81,4-3.94,6.21c-1.35,2.66-2.44,5.31-2.37,8.33c0.01,0.62,0.01,1.25,0,1.87c-0.01,1.43,0.4,2.76,0.98,4.04
		c0.83,1.79,2.01,3.32,3.41,4.73c2.46,2.48,5.48,3.53,8.85,3.68c2.15,0.1,4.3,0.01,6.46,0.01c0.42,0,0.87,0.11,1.24-0.02
		C303.48,199.1,305.71,199.06,308.23,198.25z M421.84,225.54c-0.24-0.23-0.59-0.7-1.04-1c-2.44-1.61-4.82-3.35-7.39-4.72
		c-5.22-2.79-10.57-5.35-16.2-7.26c-0.94-0.32-1.91-0.52-2.84-0.82c-3.52-1.14-7.03-2.22-10.7-2.85c-2.08-0.36-4.14-0.92-6.25-1.23
		c-0.99-0.15-2.06-0.17-2.95-0.48c-0.97-0.34-1.89-0.15-2.81-0.33c-0.92-0.17-1.81-0.43-2.78-0.43c-1.14,0.01-2.28,0.21-3.43-0.33
		c-0.52-0.25-1.36-0.19-2.23,0.18c1.95,0.52,3.68,0.95,5.38,1.43c2.79,0.78,5.57,1.56,8.33,2.44c2.88,0.93,5.73,1.9,8.57,2.92
		c3.28,1.17,6.54,2.42,9.69,3.88c4.26,1.97,8.44,4.16,12.26,6.96c0.48,0.35,0.91,0.68,1.45,1.28c-0.65,0-1.1,0.12-1.45-0.02
		c-2-0.84-4.09-0.17-6.11-0.39c-1.54,0.88-3.38-0.05-4.93,0.82c-1.09-0.2-2.01,0.36-3.42,0.65c1.4,0.32,2.42,0.36,3.39,0.52
		c3.1,0.49,5.23,2.52,7.58,4.25c1.15,1.92,2.98,3.22,4.45,4.85c1.94,2.15,4.36,3.51,7.16,4.17c0.84,0.2,1.75,0.12,2.45,0.16
		c0.53-0.45,0.9-0.76,1.14-0.97c0.09-0.77-0.12-1.38,0.2-2.02c1.5,1.52,3,2.89,4.04,4.71c0.86,1.5,2.34,2.58,3.91,3.1
		c2.52,0.84,5.21,1.09,7.86,1.37c0.05,0.01,0.12-0.16,0.22-0.3C429.22,240.49,424.25,234.11,421.84,225.54z M315.37,148.75
		c-0.05-0.05-0.09-0.09-0.14-0.13c-0.05,0.08-0.11,0.16-0.13,0.25c-0.01,0.03,0.08,0.08,0.12,0.12
		C315.27,148.91,315.32,148.83,315.37,148.75z"/>
	<path class="st2" d="M266.69,326.77c-0.07-0.45,0.1-0.77,0.43-1.09c1-0.96,1.98-1.95,2.94-2.95c0.65-0.68,1.47-1.24,1.82-2.18
		c0.07-0.18,0.26-0.34,0.43-0.44c2.12-1.28,3.54-3.36,5.53-4.83c1.62-1.2,3.12-2.58,4.74-3.82c3.22-2.48,6.61-4.7,10.07-6.83
		c4-2.46,8.09-4.74,12.33-6.75c5.63-2.67,11.37-5.1,17.34-6.92c0.62-0.19,1.17-0.56,1.87-0.64c-3.76-2.14-7.95-2.73-12.13-3.75
		c3.98-1.89,7.91-3.64,11.89-5.32c4.55-1.92,9.2-3.46,13.87-4.98c2.38-0.77,4.81-1.35,7.22-2c0.95-0.26,1.92-0.39,2.85-0.77
		c0.83-0.34,1.76-0.65,2.74-0.47c0.31,0.06,0.64,0,0.99-0.11c2.11-0.63,4.3-0.9,6.48-1.07c0.89-0.07,1.66-0.48,2.56-0.5
		c0.86-0.01,1.8,0.37,2.58-0.38c0.11-0.1,0.4-0.01,0.61,0c4.82,0.01,9.61-0.64,14.44-0.46c1.17,0.04,2.21,0.59,3.39,0.48
		c1.17-0.11,2.39-0.19,3.53,0.02c2.05,0.38,4.14,0.43,6.15,0.86c1.87,0.39,3.77,0.62,5.64,1.09c1.65,0.41,3.33,0.71,4.96,1.3
		c0.61,0.22,1.36,0.04,2.2,0.04c1.05-2.31,2.94-4,4.76-5.74c1.99-1.9,4.35-3.23,6.91-4.27c1.82-0.75,3.63-1.48,5.51-2.1
		c1.58-0.52,3.2-0.81,4.8-1.16c4.28-0.94,8.67-1.11,13.02-0.81c2.19,0.15,4.4,0.29,6.58,0.74c2.13,0.44,4.18,1.12,6.2,1.85
		c1.14,0.41,2.39,0.86,3.26,1.86c0.1,0.11,0.39,0.05,0.59,0.07c0.12,0.43,0.49,0.68,0.81,0.91c3.32,2.28,5.81,6.86,6.25,9.82
		c0.67,4.51-0.32,8.49-4.34,11.53c-3.91,2.97-9.2,5.43-15.23,6.9c-2.49,0.61-4.97,1.28-7.56,1.21c-0.8-0.02-1.39,0.56-2.09,0.49
		c-3.87,6.94-9.35,12.28-16.27,16.82c0.92-3.36,1.57-6.43,1.77-9.55c0.2-3.14,0.79-6.28,0.32-9.75c-0.14-0.28-0.64-0.58-1.15-0.94
		c-3.6-2.53-7.65-4.05-11.8-5.37c-1.85-0.59-3.77-0.88-5.66-1.3c-5.3-1.19-10.67-0.89-16.01-0.7c-2.24,0.08-4.5,0.65-6.75,1.04
		c-3.72,0.64-7.24,1.81-10.76,3.05c-3.41,1.2-6.65,2.8-9.74,4.68c-1.49,0.91-2.95,1.88-4.44,2.78c-1.01,0.61-1.86,1.39-2.72,2.28
		c0.69,0.99,1.95,1.36,2.54,2.49c0.6,1.15,1.15,2.27,1.22,3.57c0.07,1.28,0.47,2.52,0.43,3.83c-0.03,1.04-0.46,1.96-0.46,3
		c0,1,0.34,2.07-0.35,3.02c-0.13,0.18-0.02,0.54-0.03,0.81c-0.03,3.2-0.66,6.36-0.98,9.53c-0.28,2.82-0.38,5.63-0.21,8.42
		c0.29,4.68,1.66,9.11,4.64,12.82c2.15,2.69,4.94,4.61,8.3,5.6c3.22,0.95,6.5,1.56,9.84,1.18c3.72-0.42,7.37-1.27,10.86-2.65
		c1.73-0.69,3.44-1.44,5.16-2.16c0.37-0.15,0.77-0.33,1.14,0.11c-1.09,3.19-3.4,5.49-5.74,7.79c-2.28,2.25-5.04,3.84-7.65,5.48
		c-0.03,0.95,0.54,1.5,0.86,2.28c0,0.51,0,1.13,0,1.76c-1.62,2.5-4.28,3.49-6.84,4.48c-2.6,1.01-5.28,1.88-8,2.45
		c-3.4,0.72-6.86,1.3-10.36,0.89c-1.45-0.17-2.91-0.5-4.28-0.99c-3.45-1.22-6.47-3.21-9.36-5.45c-3.96-3.06-6.85-6.99-9.68-11.01
		c-2.81-3.99-6.08-7.53-9.79-10.71c-3.05-2.62-6.28-4.94-9.68-7.05c-2.73-1.69-5.6-3.12-8.59-4.31c-1.73-0.68-3.42-1.49-5.2-2.03
		c-2.55-0.78-5.12-1.49-8-1.89c1.55-1.53,3.53-1.8,5.15-2.72c1.6-0.91,3.47-1.25,5.46-2.5c-3.28,0.2-6.03-0.55-8.85-0.46
		c-3.26,0.11-6.53-0.09-9.79,0.1c-1.93,0.11-3.88,0.39-5.82,0.67c-1.87,0.27-3.71,0.66-5.58,0.9
		C269.4,326.04,268.12,326.7,266.69,326.77z"/>
	<path class="st1" d="M65.86,304.26c0,0.2-0.04,0.37-0.31,0.32C65.48,304.29,65.67,304.28,65.86,304.26L65.86,304.26z"/>
	<path class="st0" d="M308.23,198.25c-2.52,0.81-4.75,0.85-6.84,1.52c-0.38,0.12-0.83,0.02-1.24,0.02c-2.15,0-4.31,0.08-6.46-0.01
		c-3.38-0.15-6.39-1.2-8.85-3.68c-1.4-1.41-2.58-2.94-3.41-4.73c-0.59-1.27-1-2.61-0.98-4.04c0.01-0.62,0.01-1.25,0-1.87
		c-0.07-3.03,1.01-5.67,2.37-8.33c1.13-2.21,2.55-4.2,3.94-6.21c0.92-1.34,2.08-2.53,3.22-3.71c3.29-3.38,6.76-6.56,10.55-9.4
		c2.36-1.77,4.75-3.47,7.2-5.12c1.99-1.35,4.1-2.46,6.2-3.59c0.2-0.11,0.38-0.11,0.58,0.01c0.29,0.36,0.02,0.59-0.2,0.85
		c-1.94,2.33-3.83,4.69-5.54,7.2c-2.2,3.24-4.04,6.69-5.26,10.39c-0.51,1.53-0.75,3.23-1.07,4.86c-0.41,2.13-0.12,4.23-0.36,6.39
		c-0.64,0.7-1.36,0-1.75-0.29c-1.66-1.24-3.46-2.39-4.2-4.62c-0.26,0.26-0.45,0.46-0.58,0.59c-0.28,1.29,0.11,2.51-0.43,3.73
		c-0.25,0.55-0.23,1.43,0.2,2.18c0.47,0.8-0.2,1.92,0.55,2.72c0.57,3.87,2.58,6.95,5.26,9.67c1.07,1.09,2.05,2.32,3.3,3.16
		C305.57,196.71,306.61,197.65,308.23,198.25z"/>
	<path class="st0" d="M421.84,225.54c2.41,8.57,7.39,14.96,13.55,20.56c-0.1,0.14-0.17,0.3-0.22,0.3c-2.65-0.29-5.34-0.53-7.86-1.37
		c-1.57-0.52-3.05-1.6-3.91-3.1c-1.04-1.82-2.53-3.19-4.04-4.71c-0.31,0.64-0.1,1.25-0.2,2.02c-0.25,0.21-0.61,0.52-1.14,0.97
		c-0.7-0.04-1.61,0.03-2.45-0.16c-2.8-0.66-5.22-2.02-7.16-4.17c-1.47-1.63-3.3-2.92-4.45-4.85c-2.34-1.73-4.47-3.75-7.58-4.25
		c-0.96-0.15-1.98-0.2-3.39-0.52c1.42-0.3,2.34-0.85,3.42-0.65c1.54-0.87,3.39,0.06,4.93-0.82c2.03,0.22,4.11-0.45,6.11,0.39
		c0.34,0.14,0.8,0.02,1.45,0.02c-0.55-0.6-0.98-0.93-1.45-1.28c-3.82-2.8-8-4.99-12.26-6.96c-3.15-1.45-6.4-2.7-9.69-3.88
		c-2.85-1.02-5.7-1.99-8.57-2.92c-2.76-0.89-5.54-1.66-8.33-2.44c-1.71-0.48-3.43-0.91-5.38-1.43c0.87-0.37,1.71-0.43,2.23-0.18
		c1.15,0.54,2.29,0.34,3.43,0.33c0.97,0,1.86,0.26,2.78,0.43c0.92,0.17,1.84-0.01,2.81,0.33c0.89,0.31,1.96,0.33,2.95,0.48
		c2.11,0.31,4.16,0.87,6.25,1.23c3.67,0.63,7.18,1.7,10.7,2.85c0.93,0.3,1.9,0.5,2.84,0.82c5.63,1.9,10.98,4.47,16.2,7.26
		c2.57,1.37,4.95,3.12,7.39,4.72C421.25,224.84,421.6,225.3,421.84,225.54z"/>
	<path class="st0" d="M176.69,248.49c0.15-0.53,0.41-0.6,0.79-0.19C177.25,248.59,176.96,248.47,176.69,248.49L176.69,248.49z"/>
	<path class="st0" d="M315.37,148.75c-0.05,0.08-0.1,0.16-0.15,0.24c-0.04-0.04-0.13-0.09-0.12-0.12c0.03-0.09,0.08-0.16,0.13-0.25
		C315.28,148.66,315.32,148.7,315.37,148.75z"/>
	<path class="st0" d="M265.03,251.82c-0.01-0.19,0.06-0.32,0.27-0.39C265.5,251.76,265.24,251.78,265.03,251.82L265.03,251.82z"/>
</g>
</svg>
